<svg width="104" height="104" viewBox="0 0 104 104" fill="none" xmlns="http://www.w3.org/2000/svg">
<mask id="path-1-inside-1_1777_12" fill="white">
<rect width="104" height="104" rx="4"/>
</mask>
<rect width="104" height="104" rx="4" fill="#8F39E2" stroke="#590CA3" stroke-width="32" mask="url(#path-1-inside-1_1777_12)"/>
<path d="M51.0489 22.927C51.3483 22.0057 52.6517 22.0057 52.9511 22.9271L59.409 42.8024C59.5428 43.2145 59.9268 43.4934 60.36 43.4934L81.2582 43.4934C82.227 43.4934 82.6297 44.733 81.846 45.3024L64.939 57.5861C64.5885 57.8407 64.4419 58.2921 64.5757 58.7041L71.0336 78.5795C71.333 79.5008 70.2785 80.267 69.4948 79.6976L52.5878 67.4139C52.2373 67.1593 51.7627 67.1593 51.4122 67.4139L34.5052 79.6976C33.7215 80.267 32.667 79.5008 32.9664 78.5795L39.4243 58.7041C39.5581 58.2921 39.4115 57.8407 39.061 57.5861L22.154 45.3024C21.3703 44.733 21.773 43.4934 22.7418 43.4934L43.64 43.4934C44.0732 43.4934 44.4572 43.2145 44.591 42.8024L51.0489 22.927Z" fill="white"/>
</svg>
