<svg width="22582" height="9749" viewBox="0 0 22582 9749" fill="none" xmlns="http://www.w3.org/2000/svg">
<mask id="mask0_438_430" style="mask-type:alpha" maskUnits="userSpaceOnUse" x="0" y="0" width="22582" height="9749">
<rect width="22582" height="9749" fill="#D9D9D9"/>
</mask>
<g mask="url(#mask0_438_430)">
<rect x="1" width="22581" height="9749" fill="#D9D9D9"/>
<rect x="1" width="22581" height="9749" fill="#590CA3"/>
<path d="M20681 724.12C20662.5 590.975 20667 460.445 20729 335.647C20751.8 417.653 20771.3 501.999 20825 577.355C20910.7 611.57 21007.5 667.157 21125.2 663.671C21083.3 563.319 21036 460.718 20885.1 430.584C21078 458.333 21181.3 593.863 21341.4 620.51C21216.9 530.982 21109.3 381.143 21173.3 232.036C21250 375.548 21356.1 576.118 21581.5 637.76C21634.3 587.171 21684.3 539.149 21677.5 465.123C21700.4 506.172 21724.4 544.194 21749.6 585.977C21876.4 585.977 21947.1 591.203 22001.8 680.915C22005.8 640.462 21993 599.367 22013.8 560.061C22102.8 595.652 22232.8 631.706 22362 637.76C22284.8 563.826 22221.5 489.798 22085.8 465.123C22143.9 417.378 22204.2 359.909 22301.9 335.647C22140.6 354.956 22003.4 364.677 21869.7 430.584C21887.6 366.144 21902.6 316.752 21893.7 257.953C21848.5 304.414 21810.3 356.655 21725.6 378.807C21696.4 287.674 21667.6 185.07 21569.5 111.182C21569.5 126.547 21562.8 278.82 21521.5 344.269C21503.4 201.446 21421.4 42.5689 21281.3 -52.83C21265.7 -16.3216 21244.6 19.5916 21233.3 59.4022C21196.4 -6.91832 21165.8 -80.8516 21197.3 -165.059C21110.6 -87.1351 21020.6 1.24627 20969.2 93.8932C20960.1 28.811 20949.2 -51.2239 20957.2 -121.902C20912.6 -33.7035 20850.5 53.4401 20849.1 154.343C20810.3 70.5019 20801.1 -35.4467 20669 -61.4521C20644.7 25.8287 20619.7 108.616 20548.9 180.257C20541.2 113.661 20543.7 49.5421 20488.9 -9.66936C20463.9 30.7376 20421.6 102.653 20392.9 154.343C20371.1 68.071 20360.3 -27.6963 20368.9 -121.857C20304.2 -19.5782 20278.6 88.343 20296.8 214.792C20273.6 314.686 20282.3 421.599 20308.8 516.906C20238.1 240.937 20055.5 -103.509 19744.5 -260C19970 -73.8805 20092.7 207.822 20092.7 456.501C20041.4 344.591 19885.1 201.72 19828.5 128.474C19888.2 281.25 19888.6 440.033 19888.6 603.266C19836.6 599.689 19784.5 608.999 19732.4 611.888C19757.4 704.856 19854.3 698.21 19984.6 698.21C19953.7 752.055 20026.4 770.305 20044.6 801.814C20105.3 792.504 20134.1 772.002 20176.7 741.365C20152.3 637.71 20193.3 630.467 20248.8 577.355C20401.4 566.072 20419.5 644.086 20452.9 724.12C20464 658.992 20500 633.813 20537 586.022C20675.4 597.305 20656.7 636.977 20681 724.12Z" fill="#4A078B"/>
<path d="M6871.22 6722.42C6836.69 6648.95 6860.33 6585.29 6885.12 6517.55C6740.59 6563.92 6672.75 6637.53 6607.46 6714.86C6586.54 6644.64 6501.68 6588.73 6427.01 6547.91C6435.84 6609.92 6420.28 6664.86 6399.26 6722.42C6361.77 6657.43 6309.63 6609.59 6232.66 6555.47C6150.06 6563.87 6137.21 6649.36 6135.5 6654.13C6008.64 6608.31 6010.55 6555.66 6010.55 6472C5916.71 6551.9 5884.49 6671.6 5843.95 6752.78C5758.94 6685.87 5641.06 6663.21 5524.64 6631.38C5579.64 6687.93 5580.14 6754.57 5580.14 6821.08C5533.07 6784.02 5459.86 6785.67 5399.69 6767.97C5350.91 6785.72 5381.22 6813.46 5371.94 6836.26C5221.04 6831.08 5055.69 6837.86 4913.83 6843.83C4947.1 6863.23 4987.9 6874.19 5024.88 6889.37C4778.64 6883.87 4436.65 6883.96 4247.52 6912.12C4317.67 6930.01 4373.22 6949.13 4427.97 6965.23C4099.68 7043.11 3813.74 7163.14 3484 7223.22C3751.67 7276.33 3965.24 7204.51 4191.96 7154.93C4271.6 7133.97 4345.52 7119.84 4427.97 7101.82C4440.06 7153.37 4479.45 7194.97 4511.27 7238.4C4602.65 7235.28 4707.53 7170.89 4788.93 7139.75C4788.93 7165.06 4788.93 7190.33 4788.93 7215.65C5001.9 7080.03 5128.36 7040.54 5455.24 7010.77C5246.48 7040.5 5149.83 7137.27 5094.28 7238.4C5182.3 7225.93 5241.36 7202.77 5302.54 7177.72C5320.9 7228.73 5339.97 7272.48 5358.09 7321.88C5503.46 7217.81 5605.38 7061.36 5677.39 6972.8C5707 7107.14 5642.32 7231.48 5580.19 7344.62C5663.54 7306.83 5733 7261.11 5802.3 7223.22C5794.52 7272.16 5796.58 7318.39 5788.4 7367.37C5983.6 7277.48 6046.18 7140.94 6066.05 7010.73C6083.51 7144.06 6060.68 7273.44 5996.65 7390.12C6154.77 7257.57 6316.31 7135.39 6551.91 7063.84C6326.24 7123.6 6323.99 7247.39 6302.06 7367.37C6381.49 7328.94 6478.75 7321.32 6565.81 7306.65C6669.19 7324.35 6688.51 7358.15 6732.42 7390.12C6770.9 7312.2 6739.44 7248.63 6704.66 7185.25C6820.03 7222.99 6867.25 7297.38 6912.87 7359.76C6978.56 7284.13 6968.37 7205.65 6968.37 7124.52C7067.43 7201.39 7073.8 7281.24 7121.07 7367.33C7197.8 7291.47 7333.19 7227.39 7426.48 7170.02C7398.68 7245.01 7381.82 7311.1 7370.93 7382.51C7518.71 7327.56 7613.51 7277.21 7773.49 7238.36C7715.22 7206.02 7653.65 7233.36 7593.03 7230.74C7739.71 7072.74 7784.58 6904.32 7717.98 6722.33C7754.72 6853 7675.28 6947.48 7593.03 7048.61C7573.51 6858.41 7508.17 6640.28 7676.33 6487.09C7446.75 6606.25 7504.41 6777.55 7426.48 6919.64C7359.13 6838.46 7330.08 6761.13 7259.87 6684.4C7258.72 6764.71 7177.63 6823.92 7107.17 6881.67C7173.21 6796.86 7040.43 6578.78 7010.02 6745.08C6975.14 6794.25 6880.55 6833.19 6857.32 6851.3L6871.22 6722.42Z" fill="#4C098C"/>
<path d="M20030.1 -95.5742C20027.6 -95.5742 20025.3 -95.1138 20022.8 -94.9304C19934.3 -54.5693 19893.2 38.6274 19857.6 128.568C19857.6 84.3546 19857.6 40.1407 19857.6 -4.11888C19829.7 52.0655 19805.7 112.379 19733.2 141.182V-31.6367H19719.3C19656.5 15.7417 19597.8 89.17 19574.2 172.782C19556.3 112.928 19545.5 37.6629 19498.1 -10.4035C19487 40.5065 19467.9 77.4301 19456.6 128.524C19429 77.9805 19415.2 10.9717 19353 -4.16367C19348.1 40.4628 19341.8 88.0708 19346.1 134.853C19307.7 84.7227 19270.6 36.7002 19229 -9.3481C19249.9 48.8544 19262.6 112.058 19265.4 180.488C19201.7 105.545 19216.3 40.9195 19107.2 46.5609C19098.9 63.6226 19069.9 80.8239 19072 116.232C19058.9 118.616 19002.1 117.056 18978.2 148.29C18951.3 115.542 18968.8 94.9481 18896.2 105.451C18898.1 94.8105 18890.7 82.7944 18902 73.3004C18921.7 69.723 18944.9 81.2353 18960.6 62.66C18964.6 26.4268 18977.3 -19.0256 18943 -55.2129C18882.3 -49.6633 18845.5 -38.0125 18796.5 -7.00783C18766.3 -34.5726 18780.2 -57.1378 18708.5 -44.525C18680.1 -18.5196 18651.7 12.988 18638.2 51.9273C18602.3 -13.6595 18571.7 -53.2396 18485.8 -7.00783C18486.7 3.1283 18465.6 41.4244 18491.6 57.2936C18453.3 72.8877 18423.8 77.2464 18397.9 116.232C18379.3 93.666 18381.4 65.3657 18345.1 51.9273C18359.7 2.94361 18375.6 -31.4087 18321.4 -45.0764C18309.7 -44.1133 18298.1 -42.7837 18286.5 -41.5912C18272.2 -20.4017 18249.6 6.52046 18245.5 35.8281C18196.2 60.8244 18175.8 68.806 18181 126.917C18157.8 102.7 18148.9 76.1918 18098.8 78.7144C18087.7 41.4722 18102.3 23.354 18052 19.7765C18015.9 52.7533 17982 96.1405 17952.3 148.335C17932.3 127.42 17908.7 95.3175 17876.1 78.7144C17843.4 132.468 17830.8 199.427 17764.7 228.78C17756 189.428 17756.8 147.831 17735.4 110.91C17712 132.283 17680.7 154.757 17665 185.899C17669.5 144.988 17674.4 114.671 17687.2 77.3371C17679.3 77.7958 17671.3 78.2075 17663.3 78.5744C17600.3 120.908 17534.6 166.455 17477.4 218.053C17475 210.715 17473 203.649 17471 196.632C17474.8 261.76 17474.8 329.5 17480.5 381.878C17525 329.041 17566.5 259.695 17602 211.032C17619.3 301.89 17664 409.812 17714.1 501.45C17762.5 463.611 17776.8 418.527 17798.2 364.773C17823.8 422.563 17841.9 473.84 17863.7 518.604C17915.5 394.448 17968.3 267.631 18031.9 151.226C17957.7 371.378 17927.5 601.802 18013.3 817.504C18111.9 738.112 18185 625.283 18265.6 527.086C18259.4 595.15 18249.7 674.221 18237.5 740.633C18271.3 699.814 18296.7 654.317 18321.6 612.534C18342.6 658.124 18340.4 703.714 18349.7 749.166C18421.1 743.891 18464.1 667.482 18508.6 621.067C18513.7 667.161 18535.4 709.631 18545.9 757.743C18554 799.021 18576.1 843.094 18592.7 877.31C18627.4 810.622 18664.8 743.616 18708.1 681.331C18733.6 614.69 18779.7 554.288 18863.7 509.982C18803.1 558.507 18752.5 617.488 18708.1 681.331C18673.6 771.456 18676.8 873.093 18676.8 962.713C18756.5 941.34 18797.7 869.423 18845.1 826.081C18853.3 869.882 18861.4 880.612 18873.2 920.056C18980.4 830.711 19058 726.738 19106.8 603.912C19123.1 690.367 19116.2 780.535 19116.2 868.688C19231.1 748.063 19281.6 554.975 19293.8 433.067C19304.7 514.706 19325.6 597.582 19340.5 672.25C19383.1 561.9 19453.4 471.774 19518.1 373.211C19448.6 509.934 19433.9 652.436 19433.9 808.927C19503.9 796.91 19528 757.373 19574.2 732.056C19545.3 669.129 19536.7 607.765 19536.7 526.997C19594 525.896 19620.8 561.073 19658.3 586.758C19596.8 508.375 19628 437.055 19648.9 373.211C19715.6 383.943 19731.8 435.631 19761 475.763C19778.1 413.203 19807.4 372.019 19835.8 313.45C19905.8 339.868 19882.6 404.72 19882.6 484.295C19910.8 449.025 19950.3 450.541 19985.4 433.067C19871.7 355.372 19879.9 269.143 19891.9 159.664C19980.5 160.948 19962.4 182.873 20013.5 245.112C20035 188.56 20052.8 134.988 20067.6 83.9408C20052.6 119.303 20037.1 154.984 20023.5 191.722C20023.5 95.9563 20019.9 -0.863326 20030.1 -95.5742Z" fill="#4F0B90"/>
<path d="M19467.8 5393C19462.7 5393 19458.2 5393.91 19453.3 5394.28C19278 5474.25 19196.4 5658.92 19126 5837.14C19126 5749.53 19126 5661.92 19126 5574.22C19070.6 5685.55 19023 5805.06 18879.4 5862.13V5519.69H18851.9C18727.3 5613.57 18611 5759.07 18564.2 5924.75C18528.8 5806.15 18507.4 5657.01 18413.4 5561.77C18391.3 5662.64 18353.6 5735.81 18331.3 5837.05C18276.5 5736.9 18249.1 5604.12 18125.8 5574.13C18116.1 5662.56 18103.6 5756.89 18112.2 5849.59C18036.1 5750.26 17962.5 5655.1 17880 5563.86C17921.5 5679.19 17946.8 5804.42 17952.3 5940.02C17825.9 5791.52 17855 5663.46 17638.7 5674.64C17622.3 5708.45 17564.8 5742.53 17569 5812.69C17543 5817.42 17430.5 5814.33 17383.1 5876.22C17329.8 5811.33 17364.5 5770.52 17220.5 5791.33C17224.3 5770.25 17209.7 5746.44 17232.1 5727.63C17271 5720.54 17317 5743.35 17348.3 5706.54C17356.1 5634.75 17381.2 5544.68 17313.3 5472.98C17192.9 5483.97 17120.1 5507.06 17022.9 5568.49C16963.1 5513.87 16990.6 5469.16 16848.6 5494.15C16792.2 5545.68 16736 5608.12 16709.2 5685.27C16638.1 5555.31 16577.5 5476.89 16407.1 5568.49C16408.9 5588.58 16367.1 5664.46 16418.8 5695.91C16342.7 5726.81 16284.2 5735.44 16232.9 5812.69C16196.2 5767.98 16200.4 5711.9 16128.4 5685.27C16157.3 5588.21 16188.7 5520.14 16081.3 5493.06C16058.2 5494.97 16035.2 5497.6 16012.2 5499.97C15983.8 5541.95 15939 5595.3 15930.9 5653.37C15833.3 5702.9 15792.8 5718.72 15803.1 5833.87C15757.1 5785.88 15739.5 5733.36 15640.3 5738.35C15618.3 5664.56 15647.2 5628.66 15547.4 5621.57C15475.9 5686.91 15408.6 5772.88 15349.9 5876.31C15310.2 5834.86 15263.5 5771.25 15198.9 5738.35C15134.1 5844.87 15109 5977.55 14978 6035.71C14960.9 5957.73 14962.5 5875.31 14919.9 5802.15C14873.6 5844.5 14811.5 5889.03 14780.5 5950.74C14789.3 5869.67 14799.1 5809.6 14824.5 5735.62C14808.7 5736.53 14792.9 5737.35 14777.1 5738.08C14652.2 5821.96 14522 5912.21 14408.6 6014.45C14403.9 5999.91 14400 5985.91 14396 5972.01C14403.5 6101.06 14403.5 6235.29 14414.8 6339.07C14503 6234.38 14585.4 6096.97 14655.7 6000.54C14689.9 6180.58 14778.5 6394.42 14877.9 6576.01C14973.7 6501.03 15002.1 6411.69 15044.5 6305.18C15095.2 6419.69 15131.2 6521.3 15174.3 6610C15276.9 6363.98 15381.5 6112.69 15507.7 5882.04C15360.5 6318.27 15300.7 6774.85 15470.8 7202.27C15666.2 7044.95 15811 6821.38 15970.7 6626.8C15958.4 6761.67 15939.2 6918.35 15915.1 7049.95C15982.1 6969.06 16032.4 6878.91 16081.8 6796.12C16123.3 6886.46 16119.1 6976.79 16137.5 7066.86C16279 7056.4 16364.3 6905 16452.4 6813.03C16462.4 6904.36 16505.5 6988.52 16526.4 7083.85C16542.3 7165.64 16586.1 7252.98 16619.1 7320.77C16687.8 7188.63 16761.9 7055.86 16847.7 6932.44C16898.3 6800.39 16989.7 6680.7 17156.2 6592.91C17036 6689.07 16935.7 6805.94 16847.7 6932.44C16779.3 7111.02 16785.8 7312.42 16785.8 7490C16943.7 7447.65 17025.3 7305.15 17119.3 7219.26C17135.5 7306.06 17151.5 7327.32 17174.9 7405.48C17387.3 7228.44 17541.2 7022.42 17638 6779.04C17670.3 6950.35 17656.5 7129.01 17656.5 7303.69C17884.2 7064.67 17984.4 6682.07 18008.4 6440.5C18030.2 6602.27 18071.6 6766.49 18101.1 6914.45C18185.5 6695.79 18324.9 6517.2 18453.1 6321.9C18315.3 6592.82 18286.2 6875.19 18286.2 7185.27C18424.9 7161.46 18472.7 7083.12 18564.2 7032.95C18506.9 6908.26 18490 6786.67 18490 6626.63C18603.6 6624.45 18656.6 6694.15 18730.9 6745.04C18609 6589.73 18670.9 6448.41 18712.4 6321.9C18844.5 6343.17 18876.6 6445.59 18934.5 6525.11C18968.4 6401.14 19026.3 6319.54 19082.7 6203.48C19221.4 6255.83 19175.4 6384.33 19175.4 6542.01C19231.4 6472.13 19309.7 6475.13 19379.2 6440.5C19153.8 6286.55 19170.1 6115.69 19193.9 5898.76C19369.4 5901.3 19333.5 5944.74 19434.8 6068.07C19477.5 5956.01 19512.8 5849.86 19542 5748.71C19512.3 5818.78 19481.7 5889.48 19454.8 5962.28C19454.8 5772.52 19447.5 5580.67 19467.8 5393Z" fill="#4F0B90"/>
<path d="M4265.21 481.981C4281.02 438.593 4312.28 407.267 4311.33 355.531C4249.4 420.246 4181.15 411.853 4203.69 552.245C4203.69 427.172 4208.9 319.664 4142.16 215C4142.16 328.745 4166.15 504.453 4034.52 524.129C4017.01 511.332 3870.88 599.852 3957.64 467.945C3993.93 443.086 4014.9 391.213 4080.64 383.645C4009.28 398.689 3932.8 352.182 3880.77 425.795C3855.07 388.874 3832.69 308.198 3773.13 271.231C3744.87 328.012 3799.12 400.294 3696.25 425.795C3660.42 352.182 3660.27 276.14 3573.25 215.048C3573.25 304.025 3573.25 393.048 3573.25 482.026C3527.79 482.026 3520.01 515.92 3465.61 482.026C3463.91 481.567 3389.08 400.662 3296.5 439.876C3262.18 480.191 3157.1 469.918 3188.86 566.326C3164.82 556.557 3096.68 511.242 3050.51 510.095C3055.63 486.658 3058.49 462.764 3065.87 439.831C3049.31 429.741 3030.94 343.698 2973.63 383.6C2952.7 440.931 2855.05 454.324 2912.16 552.245C2850.23 495.648 2806.37 418.274 2712.28 383.6C2662.7 494.318 2739.08 502.848 2773.76 566.279C2649.51 525.138 2679.72 626.408 2620 664.66C2692.11 729.283 2747.46 664.66 2819.87 664.66C2855.75 664.66 2891.63 664.66 2927.51 664.66C2790.57 689.106 2859.62 744.419 2819.87 791.11C2917.33 807.988 2974.99 765.562 3050.51 734.879C3046.8 778.817 3081.77 801.567 3096.63 833.26C3115.95 725.569 3171.8 694.289 3250.38 622.465C3335.49 595.909 3338.35 682.778 3373.38 706.765C3373.38 636.5 3373.38 566.235 3373.38 495.97C3414.63 557.887 3449.6 605.495 3481.02 650.534C3358.02 514.682 3491.25 613.061 3496.37 594.348C3575.76 580.726 3591.42 611.732 3650.13 622.465C3772.12 531.606 3700.36 668.376 3711.6 678.696C3810.46 721.35 3935.92 703.14 4049.83 692.729C4124 655.303 4163.94 649.296 4234.35 622.465C4459.86 616.411 4390.06 567.519 4265.21 481.981Z" fill="#6704C7"/>
<path d="M4275.63 1591.2C4220.78 1529.33 4175.32 1416.96 4135.12 1371C4165.58 1433.06 4167.84 1498.64 4175.27 1566.7C4111.59 1540.51 4047.45 1523.64 3987.89 1499.42C4056.49 1535.66 4078.31 1606.65 4101.65 1670.68C3970.52 1638.48 3847.28 1649.91 3726.89 1682.93C3803.82 1677.38 3878.99 1706.87 3947.74 1725.72C3837.84 1739.66 3729.05 1817.27 3660 1866.39C3782.24 1876.8 3897.01 1849.23 4014.68 1829.69C4006.81 1807.13 4019.5 1781.07 4021.36 1762.41C4052.37 1781.62 4075.6 1803.74 4101.65 1823.6C4171.25 1788.33 4166.99 1732.87 4181.94 1664.58C4226.7 1666.37 4264.99 1672.79 4309.1 1676.83C4320.04 1628.39 4295.05 1626.7 4275.63 1591.2Z" fill="#4C0590"/>
<path d="M1554.09 4271.62C1440.4 4143.32 1346.16 3910.3 1262.84 3815C1325.98 3943.68 1330.66 4079.69 1346.05 4220.83C1214.06 4166.52 1081.12 4131.53 957.652 4081.31C1099.84 4156.45 1145.09 4303.67 1193.46 4436.44C921.661 4369.67 666.195 4393.36 416.656 4461.84C576.116 4450.33 731.934 4511.49 874.439 4550.58C646.64 4579.49 421.128 4740.42 278 4842.28C531.387 4863.87 769.275 4806.7 1013.2 4766.19C996.866 4719.39 1023.19 4665.37 1027.03 4626.66C1091.32 4666.51 1139.47 4712.36 1193.46 4753.54C1337.73 4680.4 1328.89 4565.41 1359.89 4423.8C1452.67 4427.5 1532.04 4440.82 1623.47 4449.19C1646.15 4348.75 1594.35 4345.24 1554.09 4271.62Z" fill="#4C0590"/>
<path d="M15173.2 8957.54C14980.7 8740.47 14821.2 8346.23 14680.2 8185C14787 8402.71 14795 8632.81 14821 8871.61C14597.6 8779.72 14372.5 8720.52 14163.5 8635.56C14404.2 8762.68 14480.8 9011.75 14562.7 9236.39C14102.6 9123.43 13670.1 9163.51 13247.7 9279.36C13517.7 9259.89 13781.4 9363.36 14022.7 9429.49C13637 9478.41 13255.3 9750.68 13013 9923.01C13441.9 9959.54 13844.6 9862.82 14257.6 9794.27C14229.9 9715.11 14274.5 9623.7 14281 9558.21C14389.8 9625.63 14471.3 9703.21 14562.7 9772.88C14806.9 9649.14 14792 9454.59 14844.4 9215C15001.5 9221.27 15135.9 9243.79 15290.6 9257.95C15329 9088.03 15241.3 9082.09 15173.2 8957.54Z" fill="#4C0590"/>
<path d="M14476 9661.64C14220.7 9568.3 14004.7 9484.07 13724.9 9543.97C13666.9 9367.26 13658.6 9001.61 13682 8720.4C13526.5 9004.5 13384.9 9282.7 13381.5 9602.7C13234.7 9423.84 13170.2 9393.83 12931 9347.75C12885.6 9394.48 12793.4 9452.88 12759.3 9524.25C12693.3 9373.68 12642.2 9224.4 12458.8 9171.36C12406.6 9257.3 12339.4 9350.22 12308.6 9465.53C12259.4 9241.01 12246.9 8912.98 12287.1 8681.18C12166.9 8928.19 12008.3 9211.11 11922.2 9543.97C12012.5 9213.9 11931.4 8731.65 12244.2 8426.34C12061.2 8572.62 11913.8 8771.94 11793.6 8975.35C11820.1 8708.4 11868.4 8448.52 12072.6 8230.22C11691.7 8539.61 11400.8 9042.97 11300.1 9504.75C11320 9304.24 11307.5 9022.61 11235.7 8798.85C11190.3 9006.43 11136.1 9223.76 10978.2 9387.08C11045.2 9142.32 11019.8 8893.79 10956.8 8622.34C10939.1 8681.6 10859.7 8933.87 10806.6 9053.69C10806.6 8762.41 10800.9 8471.67 10828 8191C10538 8514.96 10354.4 8967.42 10420.3 9406.69C10289.8 9025.61 10135.2 8634.45 9883.91 8328.28C10141.1 8764.34 10169.5 9221.19 10270.1 9681.25C10105.9 9560.91 9997.91 9479.24 9819.52 9406.8C9762.99 9501.96 9776.6 9597.34 9776.6 9700.97C9752.56 9763.66 9819.52 9766.34 9840.99 9799.03C9572.42 9528.76 9269.95 9567.87 9047 9720.58C9137.42 9907.59 9360.84 9989.57 9519.05 10053.9C9217.06 10017.2 9218.7 10170.8 9218.7 10406.8C9525.39 10362.4 9776.72 10363.6 10055.6 10210.7C10122.1 10390.1 10302.5 10510.9 10441.8 10622.4C10899.3 10671.3 11197 10209.9 11664.9 10132.2C11682.4 10277.8 11794 10358.2 11879.5 10465.5C12298.2 10159.7 12784.2 9975.31 13360.2 9975.31C13722.5 9773.41 14106 9661.64 14476 9661.64Z" fill="#350266"/>
<path d="M17802 2395.4C17692.7 2355.45 17600.3 2319.41 17480.6 2345.04C17455.8 2269.41 17452.2 2112.92 17462.2 1992.57C17395.7 2114.16 17335.1 2233.22 17333.7 2370.18C17270.8 2293.63 17243.2 2280.79 17140.9 2261.07C17121.4 2281.06 17082 2306.06 17067.4 2336.6C17039.2 2272.16 17017.3 2208.28 16938.8 2185.57C16916.5 2222.36 16887.8 2262.12 16874.6 2311.47C16853.5 2215.38 16848.2 2074.99 16865.4 1975.78C16813.9 2081.5 16746.1 2202.59 16709.3 2345.04C16747.9 2203.78 16713.2 1997.39 16847 1866.72C16768.7 1929.32 16705.6 2014.63 16654.2 2101.68C16665.5 1987.43 16686.2 1876.21 16773.6 1782.79C16610.6 1915.2 16486.1 2130.62 16443 2328.26C16451.6 2242.44 16446.2 2121.91 16415.5 2026.15C16396.1 2114.99 16372.9 2208 16305.3 2277.9C16334 2173.14 16323.1 2066.78 16296.2 1950.6C16288.6 1975.97 16254.6 2083.93 16231.9 2135.21C16231.9 2010.55 16229.5 1886.12 16241.1 1766C16117 1904.65 16038.4 2098.29 16066.6 2286.29C16010.8 2123.2 15944.6 1955.79 15837.1 1824.75C15947.1 2011.38 15959.3 2206.9 16002.3 2403.8C15932.1 2352.29 15885.9 2317.34 15809.5 2286.34C15785.4 2327.06 15791.2 2367.88 15791.2 2412.23C15780.9 2439.06 15809.5 2440.21 15818.7 2454.2C15703.8 2338.53 15574.4 2355.27 15479 2420.63C15517.7 2500.66 15613.3 2535.75 15681 2563.27C15551.8 2547.58 15552.5 2613.31 15552.5 2714.3C15683.7 2695.31 15791.2 2695.82 15910.6 2630.37C15939 2707.15 16016.2 2758.88 16075.8 2806.58C16271.6 2827.5 16398.9 2630.05 16599.2 2596.8C16606.6 2659.13 16654.4 2693.52 16691 2739.44C16870.1 2608.58 17078.1 2529.65 17324.5 2529.65C17479.5 2443.24 17643.6 2395.4 17802 2395.4Z" fill="#350266"/>
<path d="M4342.28 5832.05C4411.18 5825.76 4464.72 5842.09 4526.2 5798.43C4514.4 5751.64 4489.21 5708.94 4489.41 5652.76C4410.18 5623.77 4332.24 5589.69 4219.69 5596.71C4250.25 5554.84 4272.68 5499.66 4317.74 5462.24C4241.52 5462.24 4147.02 5438.85 4060.31 5507.05C4071.35 5406.37 4087.36 5313.82 4121.58 5215.71C4063.22 5304.6 3971.79 5410.22 3962.2 5529.47C3980.87 5358.95 3971.54 5163.38 3888.64 4991.62C3898.47 5090.27 3908.21 5202.5 3876.39 5305.33C3818.93 5294.83 3738.69 5261.03 3655.74 5294.14C3666.23 5274.97 3690.47 5206.31 3717.02 5182.09C3653.64 5199.94 3582.78 5235.62 3508.61 5226.9C3520.25 5173.61 3534.5 5106.51 3545.39 5047.62C3504.7 5075.55 3428.97 5097.7 3410.56 5170.86C3423.05 5056.52 3432.03 4948.28 3459.58 4834.72C3342.76 4956.76 3246.66 5098.39 3214.4 5260.52C3235.72 5046.34 3165.02 4773.35 3055.02 4577C3069.67 4664.1 3093.56 4952.82 3079.56 5126.05C3030.68 5131.64 3047.04 5135.59 2981.5 5137.24C2971.72 5047.8 2952.3 4956.81 2993.75 4868.33C2984.86 4879.16 2873.96 5052.2 2883.4 5159.67C2842.75 5076.1 2818.21 4994.92 2736.26 4924.38C2774.85 5091.97 2779.67 5236.31 2724.02 5411.79C2679.81 5169.44 2611.86 5018.4 2393.02 4868.33C2619.09 5036.11 2589.18 5243.69 2589.18 5473.38C2558.32 5349 2496.29 5213.97 2442.05 5114.81C2488.46 5254.88 2465.98 5420.32 2442.05 5540.62C2226.37 5427.98 2160.08 5156.14 2160.08 4924.33C2130.07 5116.6 2166.55 5308.91 2233.64 5462.15C2149.64 5368.86 2067.34 5337.62 1951.67 5316.48C2042.85 5340.65 2116.07 5498.56 2147.83 5551.76C2040.39 5527.64 1943.14 5544.38 1841.32 5563C1873.79 5605.52 1934.66 5617.26 1976.16 5641.43C1712.6 5635.51 1594.88 5719.86 1449 5910.34C1656.9 5930.75 1868.62 5841.68 2074.27 5798.29C2055.05 5856.12 2062.02 5917.67 2062.02 5977.57C2197.01 5906.76 2314.08 5797.37 2405.26 5686.24C2398.44 5747.24 2427.39 5800.81 2442.05 5854.33C2518.62 5795.35 2581.6 5710.41 2638.21 5641.43C2574.53 5722.34 2595.8 5783.7 2613.67 5865.53C2713.13 5845.25 2678.76 5776.27 2711.72 5731.05C2788 5721.28 2836.48 5777.37 2883.35 5809.48C2884.55 5640.15 2922.39 5507.18 3018.18 5361.29C2949.69 5492.87 2942.91 5644.87 2969.16 5764.67C2997.56 5675.42 3056.47 5610.84 3116.29 5540.57C3069.22 5619.19 3097.07 5739.77 3104.05 5809.48C3180.02 5624.46 3334.18 5513.83 3520.85 5428.53C3414.82 5504.25 3400.17 5658.03 3386.02 5742.29H3569.88C3597.43 5665.14 3594.42 5586.67 3594.42 5507C3620.77 5591.62 3640.29 5668.95 3655.74 5753.52C3754.65 5680.55 3874.99 5639.23 3986.74 5596.67C3913.03 5636.66 3900.33 5725.46 3876.39 5798.38C3938.57 5754.12 4017.35 5742.38 4084.8 5719.95C4195.2 5775.77 4280.26 5821.68 4366.77 5865.62L4342.28 5832.05Z" fill="url(#paint0_linear_438_430)"/>
<path d="M22914.9 9118.58C23052.4 9106.04 23159.3 9138.62 23282 9051.49C23258.5 8958.13 23208.2 8872.92 23208.6 8760.8C23050.4 8702.95 22894.9 8634.94 22670.2 8648.95C22731.2 8565.38 22776 8455.27 22865.9 8380.59C22713.8 8380.59 22525.2 8333.91 22352.1 8470.01C22374.1 8269.11 22406.1 8084.4 22474.4 7888.62C22357.9 8066 22175.4 8276.79 22156.3 8514.77C22193.5 8174.46 22174.9 7784.19 22009.5 7441.41C22029.1 7638.29 22048.5 7862.26 21985 8067.47C21870.3 8046.51 21710.2 7979.05 21544.6 8045.14C21565.5 8006.88 21613.9 7869.86 21666.9 7821.53C21540.4 7857.14 21399 7928.35 21250.9 7910.96C21274.2 7804.6 21302.6 7670.69 21324.3 7553.17C21243.1 7608.91 21092 7653.12 21055.2 7799.11C21080.2 7570.93 21098.1 7354.92 21153.1 7128.3C20919.9 7371.86 20728.1 7654.5 20663.7 7978.05C20706.2 7550.61 20565.1 7005.83 20345.6 6614C20374.8 6787.81 20422.5 7363.98 20394.5 7709.69C20297 7720.85 20329.6 7728.72 20198.8 7732.02C20179.3 7553.54 20140.5 7371.95 20223.3 7195.39C20205.5 7216.99 19984.2 7562.32 20003 7776.77C19921.9 7610.01 19872.9 7448 19709.3 7307.23C19786.4 7641.68 19796 7929.72 19684.9 8279.91C19596.7 7796.27 19461 7494.87 19024.2 7195.39C19475.5 7530.2 19415.8 7944.46 19415.8 8402.83C19354.2 8154.61 19230.4 7885.15 19122.1 7687.26C19214.7 7966.79 19169.9 8296.93 19122.1 8537.01C18691.6 8312.22 18559.3 7769.73 18559.3 7307.14C18499.4 7690.83 18572.2 8074.61 18706.1 8380.41C18538.5 8194.24 18374.2 8131.9 18143.3 8089.71C18325.3 8137.95 18471.4 8453.08 18534.9 8559.25C18320.4 8511.11 18126.3 8544.51 17923.1 8581.68C17987.9 8666.52 18109.4 8689.96 18192.2 8738.19C17666.1 8726.38 17431.2 8894.7 17140 9274.82C17555 9315.55 17977.6 9137.8 18388 9051.22C18349.7 9166.63 18363.6 9289.46 18363.6 9409C18633 9267.68 18866.7 9049.39 19048.7 8827.61C19035.1 8949.35 19092.8 9056.25 19122.1 9163.06C19274.9 9045.36 19400.6 8875.85 19513.6 8738.19C19386.5 8899.65 19429 9022.11 19464.6 9185.4C19663.2 9144.94 19594.6 9007.28 19660.4 8917.04C19812.6 8897.54 19909.4 9009.48 20002.9 9073.55C20005.3 8735.63 20080.8 8470.28 20272 8179.13C20135.3 8441.73 20121.8 8745.06 20174.2 8984.13C20230.9 8806.01 20348.5 8677.14 20467.9 8536.92C20373.9 8693.8 20429.5 8934.43 20443.4 9073.55C20595.1 8704.33 20902.8 8483.56 21275.4 8313.31C21063.7 8464.43 21034.5 8771.32 21006.2 8939.46H21373.2C21428.2 8785.51 21422.2 8628.9 21422.2 8469.92C21474.8 8638.79 21513.7 8793.1 21544.6 8961.88C21742 8816.26 21982.2 8733.8 22205.3 8648.86C22058.1 8728.67 22032.8 8905.87 21985 9051.4C22109.1 8963.08 22266.4 8939.64 22401 8894.88C22621.3 9006.27 22791.1 9097.9 22963.8 9185.58L22914.9 9118.58Z" fill="url(#paint1_linear_438_430)"/>
<path d="M2801.75 10396.5C2747.06 10003.3 2760.4 9617.79 2943.6 9249.2C3011.05 9491.4 3068.56 9740.52 3227.31 9963.08C3480.33 10064.1 3766.11 10228.3 4113.99 10218C3990.22 9921.62 3850.3 9618.59 3404.73 9529.6C3974.51 9611.55 4279.71 10011.8 4752.4 10090.5C4384.65 9826.12 4067 9383.57 4255.84 8943.2C4482.63 9367.05 4795.97 9959.42 5461.65 10141.5C5617.59 9992.07 5765.22 9850.23 5745.36 9631.6C5812.8 9752.84 5883.8 9865.14 5958.21 9988.54C6332.77 9988.54 6541.62 10004 6703.04 10268.9C6714.9 10149.5 6677.25 10028.1 6738.46 9912C7001.42 10017.1 7385.62 10123.6 7767 10141.5C7539.18 9923.12 7352.12 9704.48 6951.32 9631.6C7122.96 9490.59 7300.98 9320.86 7589.72 9249.2C7113.18 9306.23 6707.93 9334.94 6312.91 9529.6C6365.83 9339.28 6410.29 9193.4 6383.91 9019.74C6250.36 9156.96 6137.56 9311.25 5887.36 9376.68C5800.94 9107.52 5716.01 8804.49 5426.23 8586.26C5426.23 8631.64 5406.51 9081.37 5284.38 9274.67C5231.01 8852.85 4988.67 8383.62 4575.12 8101.86C4529.02 8209.69 4466.47 8315.76 4433.27 8433.33C4324.32 8237.46 4233.9 8019.1 4326.84 7770.4C4070.71 8000.55 3804.94 8261.57 3653.01 8535.2C3626.33 8342.98 3594.02 8106.61 3617.58 7897.86C3485.81 8158.35 3302.46 8415.73 3298.46 8713.73C3183.73 8466.12 3156.6 8153.2 2766.47 8076.4C2694.73 8334.18 2620.77 8578.68 2411.77 8790.27C2388.95 8593.58 2396.36 8404.21 2234.49 8229.34C2160.68 8348.67 2035.58 8561.07 1950.79 8713.73C1886.31 8458.94 1854.59 8176.09 1879.94 7898C1688.88 8200.07 1613.14 8518.81 1667.09 8892.27C1598.46 9187.3 1624.25 9503.06 1702.52 9784.54C1493.67 8969.49 954.274 7952.19 35.5749 7490C701.699 8039.69 1064.11 8871.68 1064.11 9606.14C912.474 9275.62 451.05 8853.66 283.852 8637.33C459.944 9088.55 461.13 9557.5 461.13 10039.6C307.717 10029 153.709 10056.5 0 10065.1C73.8161 10339.6 359.892 10320 744.833 10320C653.674 10479 868.156 10532.9 922.11 10626C1101.46 10598.5 1186.39 10538 1312.24 10447.5C1240.05 10141.3 1361.3 10119.9 1525.09 9963.08C1975.84 9929.75 2029.35 10160.2 2128.07 10396.5C2160.83 10204.2 2267.25 10129.8 2376.35 9988.67C2785.15 10022 2730.16 10139.2 2801.75 10396.5Z" fill="#4A078B"/>
<path d="M2651.63 3076.24C2676.54 3058.53 2745.13 3071.92 2729.21 3021.15C2774.77 3026.28 2930.45 3045.83 3018 3016.57C2957.6 2949.25 2888.59 2888.82 2770.23 2892.54C2883.11 2898.87 2987.61 2919.48 2996.84 2835.05C2931.76 2811.1 2865.09 2778.68 2775.52 2777.95C2775.75 2752.5 2783.81 2730.48 2776.22 2703.87C2686.04 2711.87 2622.42 2710.2 2579.9 2781.03C2567.12 2671.37 2591.19 2582.28 2619.19 2477.36C2560.33 2570.47 2501.06 2667.69 2466.55 2769.36C2446.79 2599.6 2435.18 2460.42 2319.4 2307C2452.65 2427.79 2447.78 2654.86 2326.84 2771.58C2306.99 2763.37 2280.07 2745.58 2248.42 2739.12C2257.13 2684.67 2247.2 2628.94 2276.23 2577.06C2226.97 2604.3 2151.27 2629.28 2140.5 2693.69C2129.68 2600.8 2123.97 2527.7 2196.17 2450.37C2105.47 2482.06 2063.76 2532.19 2029.44 2621.37C2021.06 2549.39 1995.87 2415.17 2033.04 2331.72C1942.63 2451.44 1894.97 2540.83 1952.65 2683.17C1927.65 2703.32 1876.29 2697.07 1875.87 2744.98C1843.56 2693.35 1843.89 2647.76 1743.04 2646.05C1722.63 2668.54 1665.32 2679.75 1698.89 2747.76C1761.72 2788.69 1782.88 2772.69 1766.54 2847.71C1679.04 2854.9 1620.28 2858.96 1577.95 2911.31C1543.96 2852.93 1520.69 2800.88 1431.08 2772.18C1441.61 2747.89 1490.82 2681.85 1442.59 2630.61C1361.27 2649.98 1312.29 2654.99 1247.03 2714.48C1182.51 2724.11 1122.62 2726.89 1064.61 2751.01L1057.59 2690.53C1001.45 2702.72 923.123 2725.52 851.16 2761.15C838.004 2706.87 852.612 2695.28 775.78 2674.79C753.307 2720.21 733.315 2756.18 706.815 2803.83C739.355 2820.94 577.169 2600.11 406.931 2552.68C492.893 2641.39 509.888 2715.64 522.061 2820.21C479.174 2803.83 443.403 2789.16 395.459 2775.09C315.443 2761.57 283.841 2794.38 241 2811.19C274.711 2871.02 385.065 2876.16 417.277 2882.49C322.326 2906.14 331.69 2939.11 318.019 2991.81C391.761 3012.64 474.585 3002.8 552.494 3001.56C361.046 2977.48 299.384 3072 314.367 3200.62C430.059 3203.44 527.072 3147.45 592.199 3101.94C597.068 3143.86 602.498 3190.31 603.154 3196.04C706.533 3194.42 775.359 3133.77 830.466 3064.48C838.613 3116.27 890.864 3126.11 924.481 3150.53C940.587 3115.37 1010.44 3076.19 1043.97 3054.38C1063.44 2983.68 1035.26 2988.9 957.723 2954.73C1177.22 2968.58 1312.15 3079.79 1408.23 3217C1402.52 3169.78 1419.65 3126.58 1429.86 3081.97C1445.54 3133.55 1513.43 3169.05 1546.44 3201.34C1518.63 3119.52 1570.69 3073.5 1627.02 3011.52C1623.37 3061.87 1661.43 3100.74 1689.24 3145.23C1709.61 3025.04 1836.96 2960.46 1941.32 2905.54C1858.03 2974.53 1873.67 3045.74 1884.11 3135.39C1934.49 3044.33 2024.15 2992.71 2123.03 2943.05C2133.19 2995.27 2187.74 3053.74 2214 3083.04C2305.44 3059.47 2347.58 3009.22 2387 2965.8C2409.29 3066.61 2538.61 3054.12 2651.63 3076.24Z" fill="#6704C7"/>
<path d="M21183.8 4521.59C21219.8 4496 21318.9 4515.35 21295.9 4441.99C21361.7 4449.4 21586.5 4477.65 21713 4435.37C21625.8 4338.09 21526.1 4250.75 21355.1 4256.13C21518.2 4265.28 21669.1 4295.07 21682.4 4173.06C21588.4 4138.45 21492.1 4091.6 21362.8 4090.55C21363.1 4053.78 21374.7 4021.95 21363.8 3983.5C21233.5 3995.06 21141.6 3992.65 21080.2 4095C21061.8 3936.53 21096.5 3807.79 21137 3656.18C21052 3790.73 20966.3 3931.21 20916.5 4078.13C20888 3832.82 20871.2 3631.7 20704 3410C20896.4 3584.54 20889.4 3912.67 20714.7 4081.34C20686 4069.48 20647.2 4043.77 20601.4 4034.43C20614 3955.75 20599.7 3875.22 20641.6 3800.25C20570.5 3839.62 20461.1 3875.71 20445.6 3968.79C20429.9 3834.55 20421.7 3728.92 20526 3617.17C20395 3662.97 20334.7 3735.41 20285.2 3864.28C20273.1 3760.26 20236.7 3566.31 20290.4 3445.72C20159.8 3618.72 20090.9 3747.9 20174.3 3953.59C20138.1 3982.7 20064 3973.68 20063.3 4042.9C20016.7 3968.3 20017.2 3902.41 19871.5 3899.94C19842 3932.45 19759.2 3948.64 19807.7 4046.92C19898.5 4106.06 19929 4082.95 19905.4 4191.36C19779 4201.74 19694.2 4207.62 19633 4283.27C19583.9 4198.9 19550.3 4123.68 19420.9 4082.21C19436.1 4047.1 19507.2 3951.68 19437.5 3877.63C19320.1 3905.63 19249.3 3912.86 19155.1 3998.83C19061.9 4012.74 18975.4 4016.76 18891.6 4051.62L18881.5 3964.22C18800.4 3981.84 18687.2 4014.78 18583.3 4066.26C18564.3 3987.83 18585.4 3971.08 18474.4 3941.47C18442 4007.11 18413.1 4059.09 18374.8 4127.95C18421.8 4152.67 18187.6 3833.56 17941.7 3765.02C18065.8 3893.2 18090.4 4000.5 18108 4151.62C18046 4127.95 17994.3 4106.75 17925.1 4086.41C17809.5 4066.88 17763.9 4114.29 17702 4138.58C17750.7 4225.04 17910.1 4232.46 17956.6 4241.61C17819.5 4275.79 17833 4323.44 17813.2 4399.58C17919.8 4429.68 18039.4 4415.47 18151.9 4413.68C17875.4 4378.88 17786.3 4515.47 17808 4701.32C17975.1 4705.4 18115.2 4624.5 18209.3 4558.74C18216.3 4619.31 18224.1 4686.43 18225.1 4694.72C18374.4 4692.37 18473.8 4604.72 18553.4 4504.6C18565.2 4579.44 18640.6 4593.66 18689.2 4628.95C18712.5 4578.14 18813.4 4521.53 18861.8 4490.01C18889.9 4387.84 18849.2 4395.38 18737.2 4346C19054.2 4366.03 19249.1 4526.72 19387.9 4725C19379.7 4656.77 19404.4 4594.34 19419.1 4529.87C19441.8 4604.41 19539.9 4655.71 19587.5 4702.37C19547.4 4584.14 19622.6 4517.63 19703.9 4428.08C19698.6 4500.82 19753.6 4557 19793.8 4621.28C19823.2 4447.61 20007.1 4354.28 20157.9 4274.92C20037.6 4374.62 20060.2 4477.52 20075.2 4607.07C20148 4475.48 20277.5 4400.88 20420.3 4329.13C20435 4404.59 20513.8 4489.08 20551.7 4531.42C20683.8 4497.37 20744.7 4424.74 20801.6 4362.01C20833.8 4507.69 21020.6 4489.64 21183.8 4521.59Z" fill="#6704C7"/>
<path d="M22438.7 10037.8C22510.1 9986.96 22707 10025.4 22661.3 9879.63C22792 9894.37 23238.8 9950.49 23490 9866.49C23316.7 9673.18 23118.6 9499.64 22779 9510.33C23102.9 9528.5 23402.8 9587.7 23429.3 9345.26C23242.5 9276.49 23051.2 9183.39 22794.2 9181.3C22794.8 9108.23 22817.9 9044.98 22796.2 8968.59C22537.4 8991.56 22354.8 8986.77 22232.8 9190.15C22196.1 8875.25 22265.2 8619.44 22345.5 8318.17C22176.7 8585.54 22006.6 8864.69 21907.5 9156.62C21850.8 8669.17 21817.5 8269.53 21485.3 7829C21867.6 8175.83 21853.7 8827.85 21506.6 9163.01C21449.7 9139.43 21372.4 9088.34 21281.6 9069.79C21306.6 8913.45 21278.1 8753.42 21361.4 8604.45C21220 8682.68 21002.8 8754.41 20971.9 8939.36C20940.8 8672.61 20924.4 8462.72 21131.6 8240.67C20871.4 8331.68 20751.7 8475.62 20653.2 8731.69C20629.1 8524.99 20556.8 8139.6 20663.5 7899.99C20404.1 8243.74 20267.3 8500.43 20432.8 8909.16C20361.1 8967 20213.7 8949.06 20212.5 9086.61C20119.8 8938.38 20120.7 8807.46 19831.3 8802.55C19772.7 8867.15 19608.3 8899.32 19704.6 9094.6C19884.9 9212.13 19945.7 9166.2 19898.8 9381.62C19647.7 9402.25 19479 9413.92 19357.6 9564.24C19260 9396.6 19193.3 9247.14 18936.1 9164.73C18966.3 9094.97 19107.5 8905.35 18969.1 8758.22C18735.8 8813.85 18595.2 8828.22 18407.9 8999.05C18222.8 9026.69 18050.9 9034.67 17884.5 9103.94L17864.3 8930.28C17703.2 8965.28 17478.4 9030.74 17271.9 9133.05C17234.2 8977.19 17276.1 8943.91 17055.6 8885.08C16991.1 9015.51 16933.8 9118.8 16857.7 9255.61C16951.1 9304.74 16485.7 8670.65 15997.2 8534.45C16243.8 8789.16 16292.6 9002.37 16327.5 9302.65C16204.5 9255.61 16101.8 9213.49 15964.2 9173.08C15734.6 9134.27 15643.9 9228.47 15521 9276.74C15617.7 9448.55 15934.4 9463.29 16026.9 9481.47C15754.4 9549.38 15781.2 9644.07 15742 9795.37C15953.6 9855.18 16191.3 9826.94 16414.9 9823.38C15865.5 9754.24 15688.5 10025.7 15731.5 10395C16063.5 10403.1 16341.9 10242.3 16528.8 10111.6C16542.8 10232 16558.4 10365.4 16560.3 10381.8C16856.9 10377.2 17054.4 10203 17212.6 10004C17235.9 10152.8 17385.9 10181 17482.3 10251.1C17528.6 10150.2 17729 10037.7 17825.2 9975.05C17881.1 9772.04 17800.2 9787.03 17577.7 9688.9C18207.6 9728.69 18594.8 10048 18870.5 10442C18854.1 10306.4 18903.3 10182.4 18932.6 10054.3C18977.6 10202.4 19172.4 10304.3 19267.1 10397C19187.3 10162.1 19336.7 10029.9 19498.4 9851.99C19487.9 9996.54 19597.1 10108.2 19676.9 10235.9C19735.4 9890.8 20100.8 9705.36 20400.3 9547.66C20161.3 9745.76 20206.2 9950.24 20236.1 10207.7C20380.7 9946.19 20638 9797.96 20921.8 9655.37C20950.9 9805.33 21107.4 9973.22 21182.8 10057.3C21445.2 9989.67 21566.1 9845.36 21679.3 9720.71C21743.2 10010.2 22114.3 9974.31 22438.7 10037.8Z" fill="#6704C7"/>
</g>
<defs>
<linearGradient id="paint0_linear_438_430" x1="3072.55" y1="5207.62" x2="2983.78" y2="6016.99" gradientUnits="userSpaceOnUse">
<stop stop-color="#440581"/>
<stop offset="1" stop-color="#40136B"/>
</linearGradient>
<linearGradient id="paint1_linear_438_430" x1="20380.6" y1="7872.48" x2="20203.4" y2="9487.67" gradientUnits="userSpaceOnUse">
<stop stop-color="#440581"/>
<stop offset="1" stop-color="#40136B"/>
</linearGradient>
</defs>
</svg>
