<svg width="104" height="104" viewBox="0 0 104 104" fill="none" xmlns="http://www.w3.org/2000/svg">
<mask id="path-1-inside-1_1777_13" fill="white">
<rect width="104" height="104" rx="4"/>
</mask>
<rect width="104" height="104" rx="4" fill="#8F39E2" stroke="#590CA3" stroke-width="32" mask="url(#path-1-inside-1_1777_13)"/>
<path d="M46.9687 43.575L52 28.0902L57.0313 43.575C57.4999 45.0171 58.8437 45.9934 60.36 45.9934L76.6417 45.9934L63.4695 55.5636C62.2428 56.4548 61.7295 58.0346 62.1981 59.4767L67.2294 74.9615L54.0572 65.3914C52.8305 64.5001 51.1695 64.5001 49.9428 65.3914L36.7706 74.9615L41.8019 59.4767C42.2705 58.0346 41.7572 56.4548 40.5305 55.5636L27.3583 45.9934L43.64 45.9934C45.1563 45.9934 46.5001 45.0171 46.9687 43.575Z" stroke="white" stroke-width="5"/>
</svg>
