<svg width="36" height="40" viewBox="0 0 36 40" fill="none" xmlns="http://www.w3.org/2000/svg">
<path d="M32.3 0H3.6C1.6 0 0 1.6 0 3.6V36.4C0 38.4 1.6 40 3.6 40H32.3C34.3 40 35.9 38.4 35.9 36.4V3.6C35.9 1.6 34.3 0 32.3 0ZM33.9 36.4C33.9 37.3 33.2 38 32.3 38H3.6C2.7 38 2 37.3 2 36.4V3.6C2 2.7 2.7 2 3.6 2H32.3C33.2 2 33.9 2.7 33.9 3.6V36.4ZM9 34L13.5 30L9 26V34ZM25.2 17.8C24.4 17 22.9 16 20.4 16C17.7 16 14.9 16.7 12.9 17.4V6H8.9V23.3L11.7 22C11.7 22 16.3 19.9 20.3 19.9C22.3 19.9 22.8 21 22.8 22V34H26.8V22C26.9 21.7 26.9 19.5 25.2 17.8ZM19.9 12.5H23.9C25.7 10.4 26.6 8.3 26.9 6H22.9C22.5 8.3 21.5 10.4 19.9 12.5Z" fill="#430098"/>
</svg>
