<svg width="20641" height="6183" viewBox="0 0 20641 6183" fill="none" xmlns="http://www.w3.org/2000/svg">
<rect width="20641" height="1932" fill="#0A0A0A"/>
<path d="M0.24698 5827.23H20640.7V534.427C20290.3 448.43 19824.9 342.391 19425.2 366.608C19235.1 378.12 19148.7 474.527 18931.2 513.191C17159.7 475.215 15615 438.755 13690.8 299.051C13239.5 296.803 12116.2 458.338 11649.9 591.025C10846.7 478.059 10363.4 495.258 9722.94 530.253L8009.81 517.916L7642.86 325.054L6105.5 597.676C5469.07 539.565 5086.44 690.321 5086.44 690.321C4727.2 590.978 4587.85 684.038 4352.96 693.532L2225.68 722.245L0.109375 998.993L0.24698 5827.23Z" fill="url(#paint0_linear_438_437)"/>
<path d="M2151.14 748.523C1993.68 749.073 1836.08 752.145 1679.76 756.227C1121.4 867.908 555.985 413.708 0.015625 493.33V1598.67C603.596 1494.74 1220.43 1468.69 1808.97 1240.7C1802.27 1239.14 1496.33 1184.42 1389 1143.88C1810.85 1101.68 2165.23 1050.91 2584.19 917.764C2879.53 890.933 3212.17 888.226 3521 853.186C3094.2 767.831 2623.59 746.826 2151.14 748.523Z" fill="#43077B"/>
<path d="M6137.33 594.784C6492.07 506.861 7068.55 590.335 7429.39 530.16H7946.24C8448.22 584.327 9182.98 691.65 9593.59 691.65C10528.8 782.141 13358.6 1398.56 14212.7 1854.41C13744.8 1802.68 11684.4 1365.22 10530.3 1079.25C10160.3 1117.55 9763.99 1072.23 9464.34 982.339C8559.59 667.11 6856.91 666.745 6137.33 594.784Z" fill="url(#paint1_linear_438_437)"/>
<path d="M5119.6 660.509C5424.76 584.741 5722.4 529.428 5975.82 594.786C6268.55 562.497 6526.88 677.34 6783.38 723.985C6984.69 862.405 9112.06 1511.26 9302.92 1596.06C9008.68 1623.17 6758.52 970.969 6492.67 917.766C5980.55 698.394 5638.46 754.807 5119.6 660.509Z" fill="url(#paint2_linear_438_437)"/>
<path d="M4780.64 659.363C5142.03 635.651 5458.39 921.021 5685.07 1046.97C6004.26 1206.16 6487.26 1474.66 6589.5 1531.44C6231.17 1404.53 5915.69 1242.12 5588.15 1143.83C5191.02 1033.57 4966.31 906.895 4780.64 659.363Z" fill="#4A236E"/>
<path d="M4005.42 723.981C4086.97 667.063 4177.7 702.472 4263.84 691.693C4444.33 702.151 4479.46 864.144 4586.84 950.095C4814.44 1163.14 4913.79 1402.92 5039.06 1628.39C4892.88 1483.96 4785.22 1365.36 4619.13 1240.79C4339.47 1089.16 4194.21 966.698 4005.42 723.981Z" fill="#4A236E"/>
<path d="M7849.31 982.385C8285.1 1011.23 8728.56 1116.95 9141.37 1240.79C10017.9 1489.88 10835.1 1642.29 11596.3 1919.08C11330.3 1906.1 11093.9 1886.79 10821.1 1886.79C10582.3 1937.24 10381.1 1863.4 10175 1822.17C9402.09 1454.2 8545.22 1191.16 7849.31 982.385Z" fill="#54069C"/>
<path d="M5781.98 982.385C6098.25 1011.23 6362.08 1116.95 6588.39 1240.79C7079.41 1489.88 7597.91 1642.29 7978.48 1919.08C7781.98 1906.1 7613.18 1886.79 7401.5 1886.79C7177.94 1937.24 7077.9 1863.4 6949.29 1822.17C6628.8 1454.2 6163.56 1191.16 5781.98 982.385Z" fill="#43077B"/>
<path d="M4554.55 982.385C4749.9 1011.23 4912.83 1116.95 5052.63 1240.79C5355.91 1489.88 5676.17 1642.29 5911.19 1919.08C5789.83 1906.1 5685.57 1886.79 5554.84 1886.79C5416.78 1937.24 5354.95 1863.4 5275.51 1822.17C5077.54 1454.2 4790.22 1191.16 4554.55 982.385Z" fill="#43077B"/>
<path d="M9690.51 691.697C10475.7 729.444 11274.7 868.003 12018.5 1030.27C13597.6 1356.69 15070.1 1556.39 16441.5 1919.04C15962.4 1902.02 15536.4 1876.71 15044.8 1876.71C14614.5 1942.84 14252.1 1846.07 13880.8 1792.04C12488.2 1309.96 10944.4 965.235 9690.51 691.697Z" fill="#5709A0"/>
<path d="M8269.23 594.784C8728.15 506.861 9473.87 590.335 9940.67 530.16H10609.2C11258.6 584.327 12209.1 691.65 12740.3 691.65C13393.2 637.53 14744.4 1289.31 15627.1 1115.72C16768.9 891.161 18615.1 1698.66 18993.4 1725.21C18388 1673.48 15445 1365.22 13952.1 1079.21C13473.5 1117.5 12960.8 1072.19 12573.2 982.294C11402.7 667.111 9200.13 666.745 8269.23 594.784Z" fill="url(#paint3_linear_438_437)"/>
<path d="M16053.9 885.472C16134.6 830.618 16936.8 863.963 17023 853.184C17148.8 807.182 17637.5 723.982 17669 723.982C18060.4 735.632 18658.2 747.375 19025.7 820.897C19424.6 835.206 20212.9 1238.4 20543.9 1337.7C20279.5 1318.81 19806.3 1135.57 19542.5 1111.63C19411.9 1315.5 19001.7 1134.52 18250.4 1047.01C16756.1 865.935 16475.9 946.151 16053.9 885.472Z" fill="#600FAC"/>
<path d="M3747.04 950.006C3728.1 1288.3 3791.07 1622.47 3843.96 1886.7C3686.17 2000.77 3547.51 1861.98 3456.33 1854.41C3398.85 1474.29 3639.62 1308.12 3747.04 950.006Z" fill="#43077B"/>
<path d="M12589.5 1565.56C12581.5 1578.63 12575.4 1593.67 12570.1 1609.36C12576.5 1594.73 12582.8 1579.91 12589.5 1565.56ZM12570 1609.36C12528.9 1701.78 12493.8 1800.11 12493 1909.46C12482.9 1823.32 12482.4 1759.34 12426.6 1694.53V1875.06C12346.5 1897.9 12245.8 1922.25 12155.2 1926.61C12100.2 1914.54 12048.1 1888.08 11992.3 1883.59C11938.2 1889.5 11887.5 1900.42 11835.5 1917.98C11800 1873.04 11767.1 1820.66 11708.8 1814.88C11672.3 1840.89 11630.8 1871.84 11588.9 1898.22C11529.7 1844.37 11444.5 1895.33 11385.7 1920.41C11363 1916.61 11355.9 1886.48 11341.4 1869.96C11278.1 1878.95 11224.9 1915.1 11164 1952.02C11156.4 1934.77 11170.4 1902.9 11141.8 1901.57C11056.6 1910.88 10975.7 1957.29 10889.1 1952.02C10884.5 1919.22 10883.2 1884.27 10866.9 1857.35C10827.6 1872.62 10802.4 1880.47 10778.2 1939.4C10760.9 1902.39 10756.9 1875.1 10725 1876.2C10703.5 1893.17 10677.7 1912.85 10654.1 1926.79C10626.2 1892.07 10615.5 1876.39 10574.3 1863.59C10546 1863.59 10517.5 1866.85 10490 1876.2C10519.6 1932.39 10587.1 1953.85 10614.1 1971.01C10641.2 1988.16 10674.1 1983.62 10707.2 1983.62C10733.7 1988.02 10763.5 1980.77 10787.1 1977.38C10840.6 2007.01 10884.9 2008.11 10933.4 1977.38C11008.8 1979.26 11081 1994.17 11155.1 1983.62C11291.3 2082.36 11393.5 1992.38 11510.4 1948.35C11501.8 1954.72 11493.3 1961.42 11485.5 1969.58C11559.6 1980.13 11703.9 2026.64 11823.4 2038.29C11891.2 1995.36 11963.1 1996.96 12034.5 1969.58C12093.5 1992.47 12168.5 1999.3 12233.6 2021.14C12297.7 2030.26 12369.6 2043.01 12426.6 2003.89C12469.6 1969.86 12493.2 1943.58 12565.4 1986.74C12585.1 1992.98 12598.2 2007.74 12619.7 2003.89C12745.4 2003.89 12872.8 2027.97 12999.7 2003.89C12888.6 1960.73 12769 1908.31 12637.7 1935.18C12619.4 1883.04 12597.5 1831.67 12607.6 1754.66C12592.6 1773.97 12585.9 1839.69 12547.3 1831.99C12547.3 1780.39 12544.8 1683.94 12570 1609.36ZM9056.2 1704.03C9049.05 1758.97 9042.58 1814.79 9041.2 1873.31C8976.67 1883.27 8925.43 1869.19 8881.12 1957.98C8945.89 1950.32 9018.18 1947.57 9086.15 1950.32C9209.95 1950.32 9299.17 1991.23 9426.27 1981.05C9508.97 1981.05 9586.94 1981.88 9666.29 1950.32C9683.82 1960.14 9704.55 1960.41 9721.38 1981.05C9803.62 1981.05 9887.01 1984.03 9966.46 1973.39C10026.6 1973.39 10070.6 1975.96 10121.4 1927.25C10143.3 1942.2 10169.6 1955.69 10191.5 1981.05C10267.4 1981.05 10341.8 1980.64 10416.5 1973.39C10336.8 1935.69 10272.9 1905.01 10201.4 1850.24C10179.1 1861.71 10144 1876.94 10116.4 1873.31C10107.3 1838.23 10104.2 1802.5 10086.4 1757.82C9994.07 1800.48 9925.54 1931.93 9831.37 1957.98C9791.19 1869.6 9745.65 1757.82 9671.29 1757.82C9660.7 1776.12 9635.88 1821.44 9611.25 1834.83C9563 1801.81 9533.18 1761.13 9481.22 1780.89C9464.57 1803.96 9452.87 1841.07 9431.22 1850.24C9407.6 1801.76 9383.88 1744.89 9336.18 1727.1C9312.88 1768.05 9290.82 1803.97 9281.18 1865.65C9243.43 1788.23 9206.6 1744.98 9141.1 1719.34C9147.94 1745.67 9175.5 1784.84 9161.1 1857.9C9116.88 1820.06 9091.43 1765.12 9056.2 1704.03ZM7248.03 1721.41V1898.59C7204.77 1922.3 7156.43 1917.57 7108.59 1917.57C7084.14 1916.98 7063 1913.4 7038.87 1911.2C7002.77 1944.36 6973.19 1958.35 6942.36 1974.49C6902.69 1976.23 6866.36 1952.2 6829.8 1936.51C6795.4 1913.81 6766.87 1890.24 6738.62 1860.61C6676.19 1866.34 6638.71 1900.97 6583.12 1930.18C6522.35 1940.83 6461.43 1935.69 6400.84 1930.18C6311.12 1955.69 6215.63 1944.4 6127.38 1961.79C6243.19 1959.54 6350.85 1988.02 6454.51 2012.47C6506.52 1994.3 6561.29 1969.9 6609.91 1955.55C6649.31 1975.96 6712.29 1983.48 6754.76 1993.52C6813.47 1998.75 6878.1 2006.23 6931.68 2018.84C7009.24 1998.71 7077.67 1980.86 7156.89 1980.86C7240.87 1980.64 7326.97 1977.47 7408.89 1987.1C7432.51 1993.11 7453.47 2009.07 7473.2 2018.8C7476.5 1978.43 7495.76 1962.02 7510.76 1930.14C7514.29 1929.41 7517.64 1929.27 7521.08 1928.85C7487.23 1954.91 7516.82 1983.48 8080.54 1997.01C8080.54 1975.36 8091.09 1949.77 8080.54 1932.11C8112 1948.99 8141.4 1960.64 8170.62 1973.43C8251.35 1992.47 8349.6 1990.77 8425.65 1967.61C8456.7 1964.58 8487.89 1953.02 8520.69 1967.61C8561.05 1967.61 8674.9 1973.62 8740.72 1985.32C8764.98 1952.57 8785.39 1922.3 8825.8 1884.92C8715.95 1884.92 8610.04 1914.41 8500.69 1914.45C8487.71 1896.93 8471.2 1890.15 8465.69 1867.21C8451.61 1881.98 8427.81 1887.85 8420.65 1914.45C8377.26 1914.45 8333.27 1917.71 8290.61 1908.54C8273.46 1885.42 8250.48 1855.15 8230.57 1831.85C8218.51 1847.86 8183.6 1840.56 8190.62 1884.92C8172.37 1852.58 8150.81 1835.2 8150.62 1790.57C8069.39 1731.59 8089.53 1727.74 8040.63 1790.57C8000.63 1816.81 7959.86 1843 7915.55 1855.47C7800.28 1867.81 7682.72 1868.77 7565.94 1889.32C7552.27 1844.69 7552.5 1802.5 7548.28 1759.38C7544.06 1799.88 7519.16 1871.62 7516.13 1879.64C7456.82 1888.49 7438.38 1835.84 7408.84 1790.99C7415.17 1817.31 7415.81 1839.88 7419.62 1866.89C7430.81 1918.9 7403.29 1917.89 7387.47 1942.8C7363.3 1953.9 7342.56 1933.21 7328.44 1930.18C7258.72 1865.33 7248.03 1819.47 7248.03 1721.41ZM13081.8 1762.92C13058.8 1817.22 13030.2 1880.65 13012.2 1935.46C12997 1917.53 12986.7 1938.12 12977.4 1894.36C12936.7 1905.46 12892.8 1907.44 12852.1 1918.95C12915.1 1974.67 12984.1 1993.07 13067.9 2009.3C13270.8 2057.19 13533.4 2065.48 13722.1 1968.21C13617.7 1968.21 13510.8 1976.74 13408.9 1951.83C13393 1939.36 13386.1 1940.28 13367.2 1918.95C13350.6 1935.78 13329.6 1941.74 13318.5 1968.25C13289.6 1955.14 13258.3 1948.94 13228 1927.16C13225.9 1920.42 13179.8 1901.89 13207.1 1861.48C13188 1888.59 13153.1 1922.89 13137.5 1960.04C13123 1903.08 13089.4 1832.95 13081.8 1762.92Z" fill="url(#paint4_linear_438_437)"/>
<path d="M13687.2 1927.34C13898.5 1942.57 14124.5 1904.13 14310.6 1875.56C14370.4 1860.56 14383.9 1897.71 14417.7 1907.89C14464.5 1921.51 14491.1 1888.4 14515.2 1882.02C14553.8 1864.05 14587.7 1903.44 14602.8 1907.89C14669.4 1855.47 14676.5 1788.74 14710 1733.19C14776.2 1761.03 14790.9 1821.21 14817.1 1869.04C14881.5 1867.99 14937.4 1860.01 15002.2 1856.11C15029.1 1863.72 15046.4 1864.5 15070.4 1869.04C15147 1849.73 15216 1804.7 15265.2 1772C15316.9 1790.71 15361 1836.16 15391.9 1862.58C15429.2 1848.82 15469.9 1841.02 15508.8 1830.24C15605.3 1819.69 15703.6 1823.78 15801 1823.78C15873.5 1821.21 15901.6 1782.91 15937.4 1759.06C16010.7 1766.99 16049.1 1810.02 16093.3 1836.71C16167.4 1840.11 16238.2 1818.18 16307.6 1804.38C16385.6 1811.67 16443.7 1845.2 16502.4 1875.56C16583.6 1875.56 16664.8 1875.56 16746 1875.56C16813.5 1837.54 16784.9 1803.5 16784.9 1772.04C16830.1 1800.11 16832.6 1832.03 16853.1 1862.62C16910.1 1858.49 16946.5 1823.73 16979.8 1804.38C16971.6 1838.87 16984.9 1877.57 16989.5 1907.89C17130.1 1895.92 17275.6 1901.42 17418.1 1901.42C17460 1913.44 17504.9 1935.04 17535 1946.69C17314.9 2008.61 17100.8 1971.55 16892.1 1933.76C16824.4 1942.02 16750.6 1940.23 16677.8 1940.23C16518.2 1904.45 16336.2 1913.67 16181 1894.96C16091.5 1898.35 16004.1 1894.22 15918 1888.49C15956.9 1889.32 15952.5 1916.01 15966.7 1927.29C15824.2 1941.74 15720.4 1907.89 15586.7 1907.89C15480.9 1914.13 15375.2 1914.36 15265.2 1914.36C15185.5 1924.68 15102.9 1920.83 15021.7 1920.83C14948.9 1878.03 14989.6 1936.79 14982.7 1940.23C14924.6 1949.58 14791.2 1935.14 14768.4 1933.76C14716.4 1925.64 14684.1 1946.7 14641.8 1953.16C14541.1 1953.16 14440.4 1953.16 14339.8 1953.16C14087.3 1918.9 13850.1 2035.53 13687.2 1927.34Z" fill="#64388E"/>
<path d="M17518.9 1922.48C17578.2 1911.29 17693 1877.17 17729.2 1865.88C17768.4 1866.07 17768 1890.1 17793.9 1906.33C17815.9 1878.72 17825 1799.29 17826.3 1793.09C17861.3 1817.72 17868.6 1851.3 17891 1882.07C17920.2 1860.15 17952.8 1812.95 17963.8 1793.09C17945.9 1826.12 17977 1866.06 17980 1882.07C18042.9 1892.48 18094.9 1871.84 18141.7 1857.81C18187.6 1857.81 18233.4 1857.81 18279.2 1857.81C18321.7 1844 18318.5 1796.17 18335.9 1768.83C18356.1 1770.85 18363 1790.53 18376.3 1801.17C18415.7 1824.83 18461.3 1817.36 18505.7 1817.36C18538.5 1807.82 18570.7 1795.66 18602.8 1785.02C18660.8 1769.89 18630.3 1829.15 18643.2 1849.74C18789.3 1851.8 18930.3 1861.85 19063.8 1874C19110.3 1814.7 19093.9 1760.16 19088 1696.09C19099.2 1749.57 19122.4 1851.66 19128.5 1874C19147.7 1804.33 19200.3 1748.61 19233.6 1704.16C19246.2 1753.97 19241.7 1806.53 19241.7 1857.81C19272.9 1841.48 19289.9 1825.7 19314.5 1809.29C19321 1839.37 19341.8 1858.5 19355 1882.07C19451.3 1857.49 19471.7 1803.32 19508.6 1720.31C19532.8 1773.42 19507.5 1835.47 19500.5 1873.95C19541 1853.04 19575.6 1830.48 19613.8 1809.24C19613.8 1828.09 19613.8 1846.98 19613.8 1865.84C19690.3 1853.18 19759.2 1840.84 19840.2 1833.5C20085.9 1932.94 20345.2 1907.34 20600.5 1930.55C20427.5 2012.92 20161.6 1984.35 19993.9 1938.62C19926.5 1938.62 19859.1 1938.62 19791.7 1938.62C19751.5 1934.5 19717.1 1943.94 19678.5 1946.69C19608.3 1957.01 19521.3 1941.15 19468.2 1930.51C19376.6 1940.09 19279.8 1927.39 19209.3 1906.24C19235.7 1939.5 19195.9 1946.42 19193.1 1954.77C19119.5 1964.26 19045.4 1946.83 18990.9 1930.51C18866.6 1908.86 18738.7 1914.31 18610.8 1914.31C18610.8 1933.16 18610.8 1952.06 18610.8 1970.91C18503 1985.77 18454.4 1936.47 18368.1 1898.13C18298.2 1906.01 18243.8 1923.49 18174 1930.46C18093.6 1925.87 18017.8 1950.78 17939.5 1962.79C17895.7 1990.22 17873.4 1942.98 17858.6 1938.53C17744.4 1940.41 17625.8 1943.9 17518.9 1922.48Z" fill="#5709A0"/>
<path d="M6280.94 1946.7C6227.92 1913.67 6226.4 1887.58 6226.4 1829.24C6204.06 1859 6198.33 1893.95 6192.83 1921.52C6138.1 1831.67 6113.34 1724.99 6079.53 1623.67C6084.07 1705.59 6083.71 1788.14 6083.71 1871.2C6060.27 1835.7 6027.56 1801.99 6003.99 1770.53C6008.62 1806.3 6008.16 1842.68 6008.16 1879.6C5980.82 1882.17 5955.23 1868.68 5932.61 1858.64C5939.77 1887.76 5926.61 1905.88 5920.05 1929.96C5868.22 1909.91 5845.37 1871.62 5836.15 1820.89C5829.23 1846.53 5822.49 1867.9 5815.19 1892.21C5781.75 1855.1 5764.97 1800.11 5743.87 1762.14C5735.34 1814.56 5701.39 1862.95 5680.94 1908.95C5659.1 1888.4 5666.26 1867.21 5664.15 1841.8C5653.19 1876.84 5632.5 1889.41 5605.39 1913.12C5585.58 1913.77 5571.95 1896.48 5559.25 1883.77C5541.68 1915.33 5524.02 1925.92 5496.32 1946.7C5442.51 1836.3 5338.53 1791.95 5248.77 1720.12C5275.51 1802.45 5304.13 1862.58 5320.09 1942.48C5295.46 1877.21 5223.9 1840.29 5177.44 1812.41C5218.35 1852.72 5243.26 1897.3 5261.33 1942.48C5210.33 1900.14 5172.39 1896.34 5110.29 1896.34C5132.21 1903.4 5144.92 1925.14 5156.43 1938.3C5069.42 1953.21 4980.71 1948.16 4896.31 1934.13C4887.83 1871.07 4916.59 1821.26 4942.46 1774.7C4874.76 1795.66 4865.86 1860.79 4841.78 1908.95C4820.4 1803.05 4854.11 1731.41 4904.71 1644.63C4823.98 1702.88 4796.18 1812.18 4766.23 1879.55C4748.07 1830.75 4726.51 1794.43 4699.08 1757.87C4705.04 1809.19 4704.81 1857.67 4690.69 1904.73C4652.07 1911.61 4612.39 1908.91 4573.22 1908.91C4592.57 1935.28 4556.57 1935.51 4552.26 1942.48C4480.84 1940.51 4420.66 1899.87 4367.64 1862.77C4367.64 1887.95 4367.64 1913.13 4367.64 1938.26C4286.91 1943.67 4201.36 1931.79 4136.87 1967.61C4230.95 1952.06 4310.76 2001.19 4401.21 2001.19C4492.86 1961.05 4601.56 1967.06 4690.73 1950.83C4809.71 1981.46 4933.28 1988.57 5055.75 1988.57C5052.17 2008.62 5058.09 2004.9 5059.93 2017.93C5125.33 1976.56 5193.95 1958.39 5269.73 1950.78C5317.02 1952.11 5362.56 1976.1 5403.98 1988.53C5415.04 1975 5420.73 1960.64 5429.17 1946.56C5474.44 1979.22 5503.29 1996.92 5555.03 1996.92C5545.72 1976.97 5570.58 1962.75 5575.99 1950.78C5597.59 2027.28 5683.09 2039.9 5756.39 2017.93C5761.62 2003.07 5753.41 1988.3 5752.22 1975.96C5818.04 1998.39 5896.29 1997.52 5962.02 1984.35C6073.94 1996.78 6220.71 2015.49 6280.94 1946.7Z" fill="#29034B"/>
<path d="M4195.58 1911.93C4173.89 1837.4 4172.01 1751.45 4186.78 1670.08C4158.94 1736.86 4104.31 1791.35 4081.23 1854.78C4057.34 1843.04 4030.6 1828.78 4015.28 1819.6C4011.52 1848.54 4009.31 1879.28 4006.47 1907.57C3960.19 1914 3918.22 1896.89 3878.91 1881.2C3871.48 1845.47 3874.51 1807.86 3874.51 1771.26C3841.85 1799.15 3826.62 1854.6 3808.55 1894.41C3764.47 1839.24 3699.93 1804.42 3650.21 1771.26C3690.67 1826.39 3692.36 1885.05 3698.6 1947.15C3593.33 1898.35 3488.62 1839.05 3377.57 1802.04C3447.38 1821.03 3509.53 1903.26 3531.5 1942.75C3498.75 1954.9 3464.67 1951.56 3430.36 1951.56C3404.68 1921.56 3407.52 1894.78 3403.99 1859.23C3407.29 1893.54 3398.07 1920.42 3390.78 1947.2C3326.52 1858.09 3265.7 1772.91 3157.68 1740.49C3224.19 1789.93 3259.05 1857.17 3267.62 1942.8C3245.33 1934.86 3226.89 1923.72 3210.47 1916.43C3202.72 1899.55 3207.54 1881.29 3206.07 1863.64C3162.04 1882.21 3134.24 1928.35 3109.33 1960.36C3065.12 1918.49 3025.03 1874.28 2977.42 1837.22C2978.1 1873.22 2981.82 1906.43 2981.82 1942.75C2916.09 1949.86 2851.23 1933.95 2783.9 1933.95C2774.22 1955.37 2781.97 1976.28 2783.9 1995.5C2707.34 1966.42 2641.98 1955.92 2564 1955.92C2541.76 1973.44 2516.81 1983.57 2498.05 1995.5C2484.15 1939.17 2499.01 1882.9 2515.66 1837.17C2457.41 1865.93 2408.33 1894.14 2370.53 1942.71C2322.65 1946.1 2265.17 1962.47 2225.41 1969.08C2196.32 1915.19 2160.23 1900.46 2115.46 1885.51C2129.22 1930.96 2133.03 1972.65 2133.03 2021.82C2202.47 2039.75 2275.17 2040.86 2348.52 2048.19C2370.39 2046.73 2375.67 2029.16 2392.5 2017.42C2429.15 2036.54 2453.83 2062.74 2484.88 2083.37C2526.58 2052.55 2570.84 2042.65 2616.8 2034.99C2693.22 2047.32 2771.93 2079.93 2845.5 2100.94C2877.79 2093.83 2900.4 2063.65 2915.86 2048.15C2960.4 2051.54 2998.84 2061.36 3043.42 2061.36C3101.72 2067.78 3155.98 2047.05 3206.16 2026.18C3231.16 2052.87 3259.14 2059.66 3289.73 2065.76C3297.44 2052.23 3310.19 2031.64 3316.11 2021.78C3358.95 2027.01 3399.17 2044.94 3439.26 2056.95C3464.17 2054.98 3485.5 2032.19 3505.22 2017.37C3581.45 2041.13 3667.82 2033.2 3742.73 2048.15C3763.64 2025.13 3761.85 2010.68 3764.7 1982.2C3795.61 1991.83 3805.8 2003.11 3830.66 2021.78C3857.44 2016.96 3931.57 1984.17 3936.2 1982.2C3972.76 1993.8 4007.8 2024.9 4032.94 2043.75C4060.5 2005.17 4081.19 1982.47 4098.89 1942.61C4142.61 1977.98 4191.14 1999.76 4235.21 2012.97C4231.13 1970.45 4211.41 1943.58 4195.58 1911.93Z" fill="#572B80"/>
<path d="M2180.45 2028.47C2154.63 1864.46 2113.72 1857.72 2005.74 1781.35C2022.62 1830.93 2012.21 1883.17 2015.47 1934.31C1961.89 1868.17 1966.94 1782.5 1966.94 1687.24C1874.42 1740.58 1799.06 1859.78 1743.7 1946.1C1712.28 1929.08 1698.42 1883.35 1675.77 1851.98C1635.13 1870.33 1603.8 1907.53 1568.98 1934.36C1446.97 1936.83 1344.05 1879.82 1229.28 1851.98C1184.52 1889.73 1223.05 1920.14 1219.56 1957.89C1072.87 1961.97 941.828 1907.02 811.929 1875.51C809.589 1991.5 766.657 1899.04 743.998 1910.83C721.339 1801.72 741.2 1725.21 773.124 1628.44C720.605 1701.41 696.432 1779.65 656.665 1851.98C641.436 1763.69 634.831 1669.44 627.538 1581.33C580.844 1693.11 563.002 1786.76 530.481 1875.51C475.026 1863.4 517.546 1828.45 511.079 1804.93C476.861 1768.19 418.884 1715.49 414.022 1710.81C446.359 1782.54 444.386 1825.61 462.55 1899.09C422.966 1884.46 382.648 1855.06 355.769 1840.24C319.258 1781.99 304.351 1881.84 297.516 1887.3C207.385 1856.48 116.016 1922.34 93.6777 1934.36C164.911 2023.15 297.608 2004.94 365.447 2004.94C332.33 2074.15 406.316 2084.24 413.976 2099.06C482.365 2100.94 541.168 2056.22 598.366 2028.47C639.739 2113.55 688.589 2086.45 743.952 2110.85C774.087 2112.45 783.032 2072.96 792.481 2063.79C844.908 2029.71 913.619 2026 967.193 2016.73C1022.28 2001.92 1073.38 2030.72 1112.78 2040.26C1096.59 2114.61 1144.57 2101.9 1161.31 2134.37C1242.36 2134.19 1310.93 2074.57 1384.55 2040.26C1435.23 2023.11 1487.84 2028.47 1539.86 2028.47C1594.12 2021.41 1630.54 2053.61 1675.72 2075.53C1724.48 2078.69 1775.99 2055.26 1792.18 2052C1843.69 2043.74 1869.15 2067.55 1908.64 2075.53C1911.02 2046.04 1934.65 2036.13 1947.44 2016.68C2042.12 2056.63 2103.44 2037.83 2180.45 2028.47Z" fill="#43077B"/>
<path d="M12797.5 2034.59C11053.4 2061.65 10171.1 1960.84 6251.35 2025.23C5202.16 2025.23 4168.57 2031.93 3128.18 2092.15C2331.13 2092.15 1553.71 2071.23 761.153 2058.67C494.888 2058.67 249.31 2027.2 0.015625 1994.64V4599.9H20640.7V2014.73C19519.7 1961.94 18429.5 1980.93 17330.3 2025.28C16281.9 1831.41 15177.1 2110.08 14108.5 2025.28C13758.8 1954.1 13159.7 2126.23 12797.5 2034.59Z" fill="#8F39E2"/>
<path d="M7178.67 3353.89C5501.32 3513.68 3825.02 3536.39 2129.31 3536.39H0.015625V3881.11C1554.22 3762.41 2684.73 3921.42 5128.41 3984.76C10448.2 4038.7 16957.2 3847.21 20641 3807.95C15862.5 3345.04 9805.5 3498.14 7178.67 3353.89Z" fill="#7C24D1"/>
<path d="M1356.66 2747.28C6089.44 2604.96 12680.8 2455.26 14673.3 2598.08C16371.7 2537.68 17973.8 2859.19 19671.7 2859.19C17466.9 2976.97 10904.5 3407.69 8807.82 2988.39C7671.11 2561.76 8684.85 3027.7 1356.66 2747.28Z" fill="#812BD5"/>
<path d="M0.015625 1994.59V2758.79C1666.46 2230.11 4971.26 2922.26 6266.49 2145.17C6069.67 2135.03 5609.43 2088.34 5025.11 2031.24C4391.99 2038.81 3761.35 2055.5 3128.23 2092.15C2331.18 2092.15 1553.76 2071.19 761.199 2058.67C494.842 2058.67 249.264 2027.16 0.015625 1994.59Z" fill="#4D1482"/>
<path d="M16194.4 2146.96C9671.29 2144.43 4954.43 2244.65 0.015625 2262.35V2315.01C6016.88 2293.54 11678.8 2132.37 20640.7 2259.42V2179.75C19570.2 2164.57 18544.6 2155.03 17562 2150.44C17097.2 2148.29 16641.5 2147.09 16194.4 2146.96Z" fill="url(#paint5_linear_438_437)"/>
<path d="M0.015625 4046.86V4189.87C6524.91 4054.89 12264.9 3963.98 20640.7 4234.59V4147.95C13707.4 3838.5 6631.56 3912.71 0.015625 4046.86Z" fill="url(#paint6_linear_438_437)"/>
<path d="M0.015625 3637.47V4535.32C23.8671 4558.3 49.8285 4579.9 78.0375 4599.81H5221.02C6148.52 4525.32 7336.18 4413.6 7526.26 4179.96C5928.72 4051.77 3340.05 3990.31 0.015625 3637.47Z" fill="#43077B"/>
<path d="M16613.7 503.157C16775.8 597.593 16915.3 700.191 17016 790.82C17058.7 774.676 17337.8 1203.7 17368.1 1176.87C18616.4 1598.14 17751.4 1236.77 17355.5 948.321C17070.9 730.326 17331.4 437.388 17541.5 280.255C17420.6 202.835 16753.5 461.237 16613.7 503.157Z" fill="#43077B"/>
<path d="M18089.1 396.114C18367.1 420.651 18660.4 358.596 18913.3 471.011C18908.3 462.48 19203.8 341.764 19447.2 359.789C19384.7 508.391 19125.5 687.905 19195.1 797.201C18712.3 612.55 18427.2 488.302 18089.1 396.114Z" fill="#43077B"/>
<path d="M19799.7 553.705C19797.9 464.635 19911.4 455.005 19996.6 419.506C20172 464.958 20377.7 489.126 20533.4 535.817C20682.7 718.496 20618 1015.2 20640.8 1242.6C20627.5 835.316 19998.2 752.162 19799.7 553.705Z" fill="#43077B"/>
<path d="M5343.3 2265.15C3536.78 2267.76 1791.22 2270.01 17.582 2270.47V2279.96C1894.88 2279.46 3746.9 2276.98 5666.07 2274.14C5558.47 2271.11 5450.86 2268.13 5343.3 2265.15Z" fill="#2D0553"/>
<path d="M13050.3 2827.29C12706.7 2827.64 12367.4 2828.45 12031.8 2829.63C11548.5 2831.35 11018.5 2834.03 10549.5 2837.33C10569.9 2865.43 10593.4 2898.92 10615.9 2934.69C11602.4 2927.93 12677.2 2924.82 13733.4 2925.67C13675.8 2892.64 13614.1 2859.36 13548.8 2827.4C13382.4 2827.4 13214.7 2827.13 13050.3 2827.4V2827.29H13050.3Z" fill="#43077B"/>
<path d="M13984.9 2827.59C14042.6 2858.32 14093.5 2891.89 14144.7 2926.29C15190.4 2928.25 16175.5 2934.07 17314.1 2945.67C17125.8 2910.03 17033.7 2876.05 16844.8 2842.54C15855.2 2833.81 14903.6 2828.93 13984.9 2827.59Z" fill="#43077B"/>
<path d="M10200.3 2840.41C9243.94 2848.04 8312.12 2858.45 7395.91 2870.98C7375.54 2905.76 7347.51 2938.82 7314.67 2970.06C8250.25 2957.15 9202.75 2946.47 10179.8 2938.64C10185.2 2906.06 10192.7 2873.29 10200.3 2840.41Z" fill="#43077B"/>
<path d="M17432 2851.93C17584.4 2882.28 17736.9 2917.7 17889.9 2954.93H17890C18663.7 2964.37 19815.2 2976.26 20640.7 2990.94V2893.2C19651.2 2875.62 18348.6 2862.15 17432 2851.93Z" fill="#43077B"/>
<path d="M7105.01 2875.28C6099.99 2889.5 5109.47 2905.82 4121.6 2923.13C3980.42 2959.89 3821.16 2995.56 3661.68 3029.21C4742.84 3010.02 5823.91 2991.42 6921.54 2975.59C6982.27 2941.72 7044.19 2908.71 7105.01 2875.28Z" fill="#43077B"/>
<path d="M3643.74 2931.55C2562.72 2950.74 1475.78 2970.44 371.961 2989.41C244.493 3011.12 125.695 3031.12 0.015625 3052.1V3093.73C1044.07 3076.09 2066.01 3057.68 3084.47 3039.44C3271.25 3002.4 3460 2966.09 3643.74 2931.61V2931.55Z" fill="#43077B"/>
<path d="M9599.69 3959.03C6364.19 3965.4 3206.44 3949.58 0.015625 4008.06V4134.14C3982.07 4061.53 7674.51 4003.84 11849.4 4023.74C11701 3980.17 11905.1 4018.61 11758.6 3977.24C11006 3927.98 10260.5 3954.07 9599.69 3959.03Z" fill="url(#paint7_linear_438_437)"/>
<path d="M2555.02 3651.1C2448.24 3820.53 2474.98 4033.48 2364.02 4199.97C2351.27 4193.41 2338.61 4187.08 2325.77 4179.97C2325.31 4179.92 2324.8 4180.01 2324.35 4179.97C2293.11 4108.37 2248.02 4030.59 2184.31 4004.67C2184.31 4043.29 2187.7 4082.69 2177.06 4119.98C2164.22 4089.38 2141.38 4059.02 2118.9 4019.99C2109.68 4058.88 2103.35 4112.27 2086.66 4159.47C2078.17 4167.4 2069.5 4175.24 2060.79 4182.95V3858.59C2013.04 3976.37 1949.46 4097.96 1933.82 4229.27C1887.27 4155.89 1865.16 4071.27 1744.25 4050.72C1719.25 4109.06 1696.55 4165.75 1668.8 4228.26C1656.6 4220.01 1644.44 4211.84 1631.96 4204.51C1645.36 4212.49 1657.05 4221.15 1667.88 4230.23C1660.91 4245.92 1655.4 4259.95 1647.38 4276.83H1590.73C1562.38 4341 1524.13 4388.42 1492.3 4468C1472.8 4419.24 1447.62 4339.76 1431.2 4276.83H1424.14C1390.47 4349.62 1343.32 4419.84 1310.38 4495.24C1328.22 4429.84 1353.64 4367.1 1337.63 4295.14C1271.76 4353.66 1225.8 4414.52 1173.88 4486.21C1173.88 4416.81 1174.8 4347.28 1174.7 4278.67C1154.38 4279.13 1133.97 4279.22 1113.79 4280C1038.52 4406.36 975.268 4544.32 900.916 4668.15C900.916 4538.68 909.448 4409.25 825.463 4304.08C822.573 4304.54 819.683 4304.86 816.794 4305.22C803.171 4371.91 787.346 4437.08 773.54 4504.37C757.348 4439.61 740.744 4381.91 709.829 4322.15C703.224 4323.34 696.619 4324.3 690.014 4325.54C659.787 4385.35 618.276 4468.05 609.744 4540.7C592.039 4475.84 574.885 4415.3 566.032 4352.65C546.676 4357.37 527.319 4362.37 508.054 4367.6C491.955 4430.62 483.836 4495.93 491.496 4567.98C462.049 4513.96 440.215 4462.59 373.156 4422.41C394.393 4493.27 435.583 4556.38 427.785 4649.85C368.065 4573.07 284.722 4526.11 199.361 4477.86C132.118 4508.08 65.6551 4542.07 0.109375 4580.78V6182.47H20640.8V4646.78C20449.2 4540.56 20246.8 4445.94 20027.1 4438.23C19761.2 4438.23 19546.3 4199.69 19284.1 4254.22C19133 4269.36 18934.3 4491.48 18767.3 4502.81C18624.8 4480.89 18468.9 4553.54 18347.4 4438.23C18277.1 4431.22 17884.4 4372.1 17733.6 4341.41H17658.9C17662.2 4335.31 17665.2 4327.83 17667.9 4317.33C17618.9 4279.26 17557.4 4249.68 17533.9 4292.15C17531.5 4302.66 17528.1 4312.97 17525.1 4323.06C17526.5 4309.99 17529.6 4300 17533.9 4292.15C17540.9 4262.11 17538.9 4230.33 17490.8 4197.4C17464.3 4232.76 17446.1 4241.84 17456.5 4300.22C17444.4 4282.25 17421.4 4224.32 17365.1 4231.7C17355.5 4255.83 17337.9 4282.61 17342.3 4311.69C17301.4 4311.69 17281.3 4311.74 17250.9 4340.17V4225.97C17226.3 4266.93 17196.7 4299.67 17179.1 4341.41H17164.7C17163.3 4245.78 17161.2 4149.97 17193.8 4060.31C17156.9 4148.83 17129.3 4247.34 17106.4 4341.41H17101.3C17090.7 4220.83 17095 4092.37 17051 3974.68C16986.9 3931.98 16915 3879.64 16805.4 3888.96C16801 3897.85 16789.7 3943.95 16755.2 3964.54C16777.8 3956.84 16800.3 3947.39 16822.5 3928.9C16885.9 3976.42 16965.4 4004.12 17022.5 4054.57V4142.27C16970.5 4150.98 16922.7 4161.12 16879.7 4197.35C16856.6 4243.44 16837 4292.29 16818.6 4341.41H16800.4C16802.1 4251.88 16803.5 4163.04 16753.9 4094.61C16753.9 4175.84 16762.8 4262.11 16750.1 4341.41H16697.9C16681.2 4267.52 16650.7 4196.34 16601.4 4116.86C16611.9 4094.29 16622.4 4071.77 16634 4048.89C16618.4 4064.43 16603.6 4080.72 16589.3 4097.37C16533.3 4010.59 16456 3912.57 16348.3 3786.17C16428.9 3893.54 16507.7 4005.36 16566.8 4124.88C16516.3 4189.28 16477.4 4261.38 16456.2 4341.5H16423.5C16400.2 4235.37 16362.3 4125.16 16354 4020.45C16344 4120.53 16350.7 4232.39 16360.4 4341.5H16328.8C16295 4249.73 16255.5 4154.24 16188.3 4094.71C16220.5 4150.89 16248.9 4213.72 16271.6 4279.4C16242 4299.72 16212 4319.21 16182.7 4340.22C16182.7 4289.31 16179.7 4241.2 16205.5 4197.44C16175.1 4243.03 16136.7 4287.98 16113.3 4341.5H16105.5C16095 4306.19 16084 4268.49 16075 4229.46C16076.4 4258.12 16076.2 4287.24 16074 4317.42C16023.6 4312.38 15971.7 4322.84 15919.9 4328.89C15919.9 4285.36 15921.6 4255.83 15891.3 4220.33C15846.7 4215.88 15827.5 4205.74 15788.5 4243.17C15787 4243.17 15713.5 4235.05 15685.6 4231.79C15659.4 4179.42 15662.8 4159.42 15600 4168.91C15566.4 4183.87 15528.5 4208.31 15577.2 4283.21C15534 4250.88 15518.9 4241.38 15457.2 4248.9C15415.9 4207.63 15389.8 4185.11 15325.8 4248.9C15296.5 4232.62 15236.8 4198.41 15173.6 4242.12C15172.9 4242.12 15172.2 4241.65 15171.5 4241.47C15168.3 4205.01 15176.7 4178.68 15143.1 4151.81C15119.6 4166.71 15081.9 4185.01 15054.2 4211.89C15046.8 4210.42 15039.5 4209.05 15032.2 4207.76C15023.7 4186.76 15014.6 4163.87 14988.8 4146.03C14984.9 4152.17 14948 4168 14960.3 4191.8C14932.3 4154.51 14940.3 4138.55 14880.3 4140.39C14877.2 4157.22 14887.1 4173.91 14879.4 4190.1C14853.6 4188.73 14827.8 4187.58 14801.8 4187.4C14803.4 4171.44 14805.6 4155.57 14809.5 4140.11C14797.7 4155.43 14784.4 4171.62 14771.5 4187.49C14739.8 4187.95 14707.9 4188.64 14675.7 4190.2C14679.3 4149.28 14686 4109.84 14699.4 4068.74C14662.6 4105.16 14639.4 4148.41 14617.5 4193.64C14574.9 4196.39 14530.5 4199.83 14486.6 4203.41C14468.7 4154.47 14444.9 4105.3 14415.1 4068.74C14402.1 4099.61 14385.5 4121.9 14378.4 4156.07C14342.7 4100.48 14300.4 4006.05 14222.5 3965.55C14222.5 4020.54 14216.1 4109.56 14189.1 4185.93C14178.6 4183.09 14167.8 4180.29 14157.8 4177.31C14156.5 4113.69 14150.5 4051.55 14121.5 3989.35C14080.9 4036.14 14041.8 4084.84 14012.6 4143.5C14007.5 4143.05 14002.4 4142.63 13997.2 4142.45C13976.7 4053.06 13947.5 3964.27 13956.4 3870.33C13922.7 3935.74 13881.7 4030.59 13837.1 4100.44C13821.3 4032.15 13836.3 4011.92 13763.7 3981.46C13745.5 4016.92 13710.2 4069.53 13708.6 4116.35V3949.63C13668.8 3975.46 13532.5 4066.82 13497.6 4140.06C13476.4 4048.47 13450.7 3952.75 13396.8 3870.24C13370.4 3953.85 13363.9 4043.43 13314.2 4124.19C13298.5 4074.57 13302.4 4033.06 13259.2 3989.31C13239.6 4031.59 13233.5 4064.62 13185.8 4092.5C13172.9 4036.78 13157.6 3974.58 13167.4 3909.91C13128 3971.28 13052.5 4020.31 13029.8 4092.5C13013.8 4070.72 12977.6 4037.05 12970.1 4017.05C12978.7 4052.55 12985.8 4086.82 12991.7 4119.79C12983.6 4117.23 12975.4 4114.61 12966 4113.05C12890.3 4131.99 12845.9 4164.33 12831 4247.94C12787.1 4189.42 12715.8 4215.28 12675.5 4276.97C12674.9 4276.97 12674.4 4276.97 12673.9 4276.97C12678.3 4231.48 12678.4 4192.44 12700.6 4158C12635.9 4177.4 12576 4205.1 12520.6 4252.43C12518.4 4230.79 12514.2 4160.25 12498.1 4126.49C12490.1 4161.35 12482.1 4215.97 12466.7 4257.02C12433.7 4257.02 12399.8 4259.86 12367.7 4252.43C12418.6 4112.45 12541.5 4006.74 12574.7 3888.13C12465.8 3983.44 12341.1 4116.9 12295.7 4257.02C12295.7 4180.34 12313.8 4107.23 12345.2 4041.04C12292 4078.28 12249.1 4111.45 12237.3 4185.01C12221.8 4189.23 12212.3 4211.89 12187.7 4198.54C12187.7 4168.09 12192.8 4135.85 12178.8 4108.51C12169.9 4114.43 12133.5 4113.56 12138.3 4158.04C12116.2 4102.73 12092.6 4067.51 12025.8 4059.07C12025.8 4111.35 12042 4137.45 12075.3 4176.07C12048.8 4202.53 12041.9 4209.05 12034.8 4247.99C12016.2 4220.05 12016.4 4204.46 11980.8 4202.99C11930.6 4225.28 11929.9 4238.54 11913.3 4297.43C11875.2 4290.5 11820.1 4281.79 11773.8 4292.93C11804.3 4279.4 11815.7 4284.31 11818.8 4239C11769.7 4202.17 11731.7 4198.22 11665.8 4221.02C11671.9 4190.7 11681.6 4153.69 11674.8 4117.55C11632 4136.58 11591.8 4141.35 11584.8 4202.99C11562.9 4148.37 11532 4093.28 11472.3 4077.05C11468 4091.36 11451.5 4146.9 11454.3 4180.52C11412 4176.67 11385.8 4169.51 11350.8 4207.49C11364.2 4174.19 11380 4129.84 11359.8 4086.04C11307.4 4096.54 11279.1 4105.8 11251.8 4162.54C11251.8 4111.9 11248.8 4070.08 11206.9 4036.59C11200.6 4047.97 11164.5 4104.47 11175.4 4144.56C11104.8 4116.31 11045.6 4076.18 11030.4 4148.05C10984.8 4109.84 10938.2 4092.96 10887.9 4145.62C10910.6 4097.73 10943.2 4057.88 10997.9 4035.86C10911.5 4062.28 10836.8 4089.66 10800.6 4156.16L10783.1 4157.86C10790.3 4096.68 10801.1 4037.37 10793.9 3967.06C10786.9 4037.14 10768.7 4139.88 10666.4 4169.6L10653.9 4170.75C10654 4096.36 10659.4 4048.66 10695 3983.53C10620.2 4033.43 10580 4104.34 10535.4 4182.67L10527.3 4183.5C10548 4089.16 10577.1 4010.68 10645.6 3934.09C10555.2 4001.88 10429 4047.46 10431.4 4181.25C10416.7 4108.14 10416 4024.07 10373.7 3958.81C10373.7 4046.69 10381.8 4125.39 10343.4 4201.85L10320 4204.18C10308.7 4179.33 10306.8 4148.82 10258.3 4156.53C10251.3 4162.08 10215.5 4189.32 10188.3 4217.35L10069.2 4229.27C10060.6 4201.48 10046 4164.19 10019.3 4148.27C10119.4 4192.76 10143.6 4176.39 10027.6 4098.92C10058.3 4057.97 10090.2 4052.19 10068.8 3983.53C9995.77 4005.45 9981.73 3992.75 9969.9 4090.67C9911.09 3958.44 9957.83 4038.89 9846.37 4057.69C9859.54 4075.26 9880.18 4141.35 9945.17 4140.02C9943.02 4159.37 9924.49 4189.83 9936.92 4214.18C9906.46 4223.31 9879.95 4224 9853.85 4232.8C9821.56 4226.84 9790.64 4221.43 9761.38 4216.75C9758.03 4211.48 9755.74 4205.33 9755.65 4197.67C9728.26 4185.24 9726.79 4129.43 9664.96 4156.49C9694.09 4117.68 9736.43 4129.79 9706.15 4049.44C9640.47 4079.3 9616.25 4061.36 9599.1 4156.49C9564.19 4170.43 9537.45 4160.02 9516.3 4189.19C9496.58 4188.09 9477 4187.12 9458.42 4186.66C9423.1 4162.77 9386.54 4157.95 9310.59 4164.7C9304.07 4173.04 9296.32 4182.63 9289.07 4191.48C9255.36 4193.73 9216.1 4196.84 9181.65 4200.15C9172.06 4184.14 9161.1 4169 9145.83 4156.44C9135.23 4173.64 9122.75 4189.78 9110.97 4206.71C9103.12 4207.49 9095.14 4208.13 9087.12 4208.95C9094.36 4157.45 9102.25 4109.89 9104.59 4049.44C9063.95 4101.68 9030.79 4159.28 8999.14 4217.12C8987.26 4218.13 8976.76 4219 8964.37 4219.96C8963.78 4153.73 8960.2 4088.88 8939.83 4024.67C8933.59 4093.19 8921.39 4161.44 8892.91 4224.36C8891.12 4224.36 8889.33 4224.36 8887.54 4224.82C8880.98 4210.65 8880.11 4187.17 8849.2 4181.3C8837.64 4197.17 8828.56 4213.31 8818.37 4229.04C8798.83 4229.91 8779.06 4230.79 8758.15 4231.47C8746.96 4213.17 8733.06 4193.54 8709.07 4173.09C8692.83 4191.34 8672.88 4212.53 8651.83 4233.63C8628.48 4233.63 8605.73 4234.18 8580.68 4234.09C8568.76 4176.35 8562.47 4113.92 8569.03 4049.57C8537.15 4106.95 8522.66 4171.39 8498.81 4234.64C8477.76 4234.64 8458.9 4235.1 8438.68 4235.1C8418.49 4167.63 8397.03 4101.04 8371.2 4033.2C8371.2 4110.48 8356.98 4171.39 8327.95 4235.83C8311.39 4235.83 8291.44 4235.83 8275.38 4236.29C8265.48 4212.35 8253.73 4187.67 8239.47 4165.06C8224.2 4180.34 8198.65 4210.1 8170.48 4238.86C8141.77 4239.59 8113.52 4240.37 8085.63 4241.29C8103.84 4151.21 8139.8 4073.19 8206.49 4000.31C8138.38 4078.15 8062.56 4150.57 8014.49 4243.44C8006.05 4243.9 7996.78 4243.9 7988.34 4244.18C7984.81 4236.34 7981.51 4228.13 7977.84 4220.01C7977.93 4218.86 7977.88 4217.49 7978.02 4216.34C7977.61 4216.8 7977.2 4217.17 7976.78 4217.49C7959.35 4178.36 7942.84 4136.26 7942.84 4082.73C7942.84 4141.72 7936.51 4191.44 7931.1 4246.15C7903.81 4247.39 7873.03 4248.99 7847.53 4250.19C7826.2 4230.1 7801.8 4213.95 7772.62 4208.54C7762.76 4225.01 7750.65 4238.4 7747.72 4255.14C7741.25 4255.6 7733.27 4255.78 7726.75 4256.15C7709.32 4240.28 7691.85 4224.5 7674.33 4208.59C7664.28 4224.36 7651.76 4241.7 7640.29 4260.46C7620.98 4261.47 7600.2 4262.39 7580.34 4263.4C7572 4252.43 7563.69 4241.43 7555.8 4228.91C7545.71 4242.34 7537.18 4254.73 7527.41 4266.01C7511.91 4266.79 7497.83 4267.43 7481.91 4268.26C7476.22 4250.69 7472 4232.89 7474.57 4211.98C7446.73 4232.89 7417.37 4253.77 7388.29 4272.8C7381.83 4273.26 7377.51 4273.39 7371 4273.67C7365.5 4248.4 7358.2 4220.01 7362.74 4191.62C7331.1 4216.25 7313.99 4248.4 7294.86 4281.19C7291.24 4284.04 7286.65 4286.51 7281.15 4288.44C7280.32 4226.98 7274.17 4163.55 7247.66 4110.35C7240.92 4177.63 7242.16 4249.36 7196.98 4294.17C7186.29 4293.62 7175.79 4293.25 7163.81 4292.11C7161.11 4264.45 7160.33 4236.57 7156.2 4208.54C7143.59 4233.77 7131.94 4260.37 7120.88 4287.2C7115.33 4286.47 7110.65 4286.19 7104.92 4285.41C7100.33 4250.92 7092.72 4217.49 7081.02 4185.24C7075.93 4225.88 7062.31 4269.59 7038.82 4316.55C7020.61 4353.02 6919.2 4313.99 6887.23 4348.16C6869.98 4334.35 6856.08 4300.36 6823.98 4297.57C6801.18 4327.97 6785.58 4374.62 6741.83 4367.1C6741.83 4333.39 6741.83 4299.72 6741.83 4266.06C6696.05 4327.06 6674.35 4369.16 6628.12 4430.25C6636.56 4345.77 6629.63 4283.67 6672.38 4215.42C6606.19 4273.35 6561.52 4356.91 6520.69 4461.85C6528.45 4384.25 6527.76 4295.46 6526.98 4209.14C6499.83 4299.58 6471.48 4404.02 6419.56 4493.45C6443.5 4413.74 6451.71 4320.04 6444.83 4221.75C6423.22 4301.05 6385.34 4382.55 6356.39 4468.18C6356.39 4372.37 6353.05 4275.5 6362.4 4180.79C6360.06 4180.79 6357.95 4181.25 6355.71 4181.44C6274.84 4221.8 6237.23 4314.99 6204.75 4404.93C6204.75 4360.72 6204.75 4316.51 6204.75 4272.25C6179.21 4328.43 6157.23 4388.75 6091.05 4417.55V4244.73H6078.34C6020.87 4292.11 5967.25 4365.49 5945.64 4449.15C5929.31 4389.25 5919.45 4314.03 5876.11 4265.96C5865.93 4316.87 5848.54 4353.8 5838.22 4404.89C5812.95 4354.35 5800.33 4287.34 5743.46 4272.2C5739.01 4316.78 5733.23 4364.44 5737.17 4411.22C5702.08 4361.09 5668.14 4313.07 5630.12 4267.02C5649.24 4325.22 5660.89 4388.42 5663.46 4456.85C5605.16 4381.91 5618.56 4317.29 5518.79 4322.93C5511.23 4339.99 5484.71 4357.19 5486.64 4392.6C5474.67 4394.98 5422.79 4393.42 5400.91 4424.66C5376.33 4391.91 5392.34 4371.31 5325.92 4381.82C5327.71 4371.18 5320.96 4359.16 5331.29 4349.67C5349.22 4346.09 5370.46 4357.6 5384.86 4339.03C5388.48 4302.79 5400.04 4257.34 5368.71 4221.15C5313.21 4226.7 5279.64 4238.35 5234.78 4269.36C5207.21 4241.79 5219.92 4219.23 5154.42 4231.84C5128.41 4257.85 5102.49 4289.35 5090.11 4328.29C5057.31 4262.71 5029.38 4223.13 4950.81 4269.36C4951.63 4279.49 4932.32 4317.79 4956.17 4333.66C4921.08 4349.25 4894.11 4353.61 4870.45 4392.6C4853.52 4370.03 4855.4 4341.73 4822.24 4328.29C4835.59 4279.31 4850.08 4244.96 4800.54 4231.29C4789.86 4232.25 4779.26 4233.58 4768.67 4234.78C4755.55 4255.96 4734.91 4282.89 4731.15 4312.19C4686.15 4337.19 4667.48 4345.17 4672.2 4403.28C4651.01 4379.07 4642.89 4352.56 4597.12 4355.08C4586.94 4317.84 4600.28 4299.72 4554.28 4296.14C4521.3 4329.12 4490.29 4372.51 4463.18 4424.7C4444.88 4403.79 4423.37 4371.68 4393.55 4355.08C4363.69 4408.83 4352.09 4475.75 4291.68 4505.1C4283.79 4465.75 4284.53 4424.15 4264.89 4387.23C4243.52 4408.6 4214.9 4431.08 4200.59 4462.22C4204.67 4421.31 4209.16 4390.99 4220.91 4353.66C4213.61 4354.12 4206.32 4354.53 4199.03 4354.9C4141.42 4397.23 4081.38 4442.77 4029.09 4494.37C4018.31 4458.46 4015.97 4427.09 3980.88 4397.92C3967.21 4425.25 3963.54 4450.75 3927.3 4473C3917.49 4433.78 3909.55 4392 3892.35 4354.21C3886.44 4349.25 3880.61 4344.35 3874.78 4339.44C3859.51 4378.24 3840.06 4416.17 3846.94 4462.27C3832.72 4391.27 3800.43 4324.76 3785.3 4254.73C3764.29 4232.21 3743.88 4208.59 3724.75 4181.62C3687.92 4210.83 3656.08 4249.77 3615.72 4266.19C3566.23 4220.42 3523.39 4157.4 3455.82 4150.89C3436.65 4163.55 3420.73 4182.4 3397.66 4189.32C3384.27 4155.34 3379.04 4099.84 3332.25 4074.02C3291.02 4106.72 3259.46 4128.23 3208.73 4166.3C3239 4059.53 3315.19 3971.65 3361.38 3851.16C3227.81 3950.87 3073.24 4032.74 3005.17 4204.74C2988.7 4184.83 2985.86 4149.05 2954.39 4143.18C2935.63 4178.87 2929.49 4216.16 2888.89 4243.17C2847.15 4176.94 2829.31 4095.76 2779.96 4035.63C2724.27 4094.52 2654.28 4151.48 2634.55 4235.51C2634.55 4150.02 2651.02 4076.59 2670.93 3997.24C2590.52 4035.04 2569.19 4109.47 2496.49 4166.39C2480.25 3994.86 2483.74 3807.22 2554.65 3651.42L2555.02 3651.1ZM7978.3 4216.11C7983.2 4212.3 7988.16 4208.13 7992.97 4204.92C7983.89 4190.84 7980.04 4199.87 7978.3 4216.11ZM16075 4229.46C16073 4191.16 16067.9 4153.92 16056.9 4117.55C16059.5 4154.42 16066.3 4192.26 16075 4229.46ZM16755.1 3964.63C16745.1 3968.07 16735.1 3971.79 16725.3 3974.77C16737 3973.8 16746.6 3969.77 16755.1 3964.63ZM17022.3 4150.52V4341.5H16897.1C16900.6 4306.51 16905.8 4271.7 16919.5 4237.48C16948.5 4204.37 16979.6 4171.21 17022.3 4150.52ZM16582.7 4157.77C16594.8 4184.37 16606.2 4211.25 16616 4238.67C16598.9 4272.57 16581 4306.97 16563.1 4341.5H16526.8C16536.7 4278.39 16556.9 4218.04 16582.7 4157.77ZM13250 4235.33C13295.3 4239.23 13331.5 4243.95 13357.9 4257.62C13321.4 4261.33 13285.4 4264.63 13248.4 4267.57C13249 4256.88 13249.1 4246.98 13250 4235.33ZM16285.2 4322.06C16287.1 4328.52 16288.8 4334.99 16290.7 4341.5H16281.6C16282.9 4334.95 16284 4328.48 16285.2 4322.06Z" fill="#590CA3"/>
<path d="M9574.05 5420.2C9557.12 5287.05 9561.25 5156.52 9617.94 5031.72C9638.82 5113.73 9656.61 5198.08 9705.74 5273.43C9784.03 5307.65 9872.47 5363.23 9980.12 5359.75C9941.82 5259.4 9898.52 5156.8 9760.64 5126.66C9936.96 5154.41 10031.4 5289.94 10177.7 5316.59C10063.9 5227.06 9965.58 5077.22 10024 4928.11C10094.2 5071.63 10191.2 5272.2 10397.2 5333.84C10445.4 5283.25 10491.1 5235.23 10484.9 5161.2C10505.8 5202.25 10527.8 5240.27 10550.8 5282.06C10666.7 5282.06 10731.4 5287.28 10781.3 5376.99C10785 5336.54 10773.3 5295.45 10792.3 5256.14C10873.6 5291.73 10992.5 5327.78 11110.5 5333.84C11040 5259.9 10982.2 5185.88 10858.1 5161.2C10911.2 5113.46 10966.3 5055.99 11055.7 5031.72C10908.2 5051.03 10782.8 5060.75 10660.6 5126.66C10677 5062.22 10690.7 5012.83 10682.5 4954.03C10641.2 5000.49 10606.3 5052.73 10528.9 5074.89C10502.1 4983.75 10475.9 4881.15 10386.2 4807.26C10386.2 4822.62 10380.1 4974.9 10342.3 5040.35C10325.8 4897.52 10250.8 4738.65 10122.8 4643.25C10108.6 4679.76 10089.2 4715.67 10078.9 4755.48C10045.2 4689.16 10017.2 4615.23 10046 4531.02C9966.73 4608.94 9884.49 4697.32 9837.47 4789.97C9829.21 4724.89 9819.21 4644.85 9826.51 4574.18C9785.73 4662.37 9728.99 4749.52 9727.75 4850.42C9692.25 4766.58 9683.86 4660.63 9563.13 4634.63C9540.93 4721.91 9518.04 4804.69 9453.37 4876.33C9446.31 4809.74 9448.6 4745.62 9398.51 4686.41C9375.67 4726.82 9336.96 4798.73 9310.72 4850.42C9290.77 4764.15 9280.95 4668.38 9288.79 4574.22C9229.67 4676.5 9206.23 4784.42 9222.93 4910.87C9201.69 5010.76 9209.67 5117.68 9233.89 5212.98C9169.26 4937.02 9002.35 4592.57 8718.06 4436.08C8924.19 4622.2 9036.34 4903.9 9036.34 5152.58C8989.41 5040.67 8846.62 4897.8 8794.88 4824.55C8849.38 4977.33 8849.74 5136.11 8849.74 5299.34C8802.27 5295.77 8754.61 5305.08 8707.05 5307.97C8729.89 5400.93 8818.42 5394.29 8937.54 5394.29C8909.33 5448.13 8975.7 5466.38 8992.39 5497.89C9047.89 5488.58 9074.18 5468.08 9113.12 5437.44C9090.78 5333.79 9128.3 5326.54 9178.99 5273.43C9318.47 5262.15 9335.03 5340.16 9365.58 5420.2C9375.71 5355.07 9408.65 5329.89 9442.41 5282.1C9568.91 5293.38 9551.89 5333.06 9574.05 5420.2Z" fill="#4A078B"/>
<path d="M11767.6 4164.14C11736 4090.67 11757.6 4027.01 11780.3 3959.26C11648.2 4005.63 11586.2 4079.25 11526.5 4156.58C11507.4 4086.36 11429.8 4030.45 11361.5 3989.63C11369.6 4051.64 11355.4 4106.58 11336.2 4164.14C11301.9 4099.15 11254.2 4051.31 11183.9 3997.19C11108.4 4005.59 11096.6 4091.08 11095.1 4095.85C10979.1 4050.03 10980.9 3997.38 10980.9 3913.72C10895.1 3993.62 10865.7 4113.32 10828.6 4194.5C10750.9 4127.59 10643.1 4104.93 10536.7 4073.1C10587 4129.65 10587.5 4196.29 10587.5 4262.8C10544.4 4225.74 10477.5 4227.39 10422.5 4209.68C10377.9 4227.43 10405.6 4255.18 10397.2 4277.98C10259.2 4272.8 10108.1 4279.58 9978.42 4285.54C10008.8 4304.95 10046.1 4315.91 10079.9 4331.09C9854.85 4325.59 9542.26 4325.68 9369.39 4353.84C9433.51 4371.73 9484.29 4390.85 9534.33 4406.95C9234.26 4484.83 8972.9 4604.86 8671.5 4664.94C8916.16 4718.05 9111.38 4646.23 9318.61 4596.65C9391.4 4575.69 9458.97 4561.56 9534.33 4543.53C9545.38 4595.09 9581.39 4636.69 9610.47 4680.12C9693.99 4677 9789.86 4612.61 9864.26 4581.47C9864.26 4606.78 9864.26 4632.05 9864.26 4657.37C10058.9 4521.75 10174.5 4482.26 10473.3 4452.49C10282.5 4482.21 10194.1 4578.99 10143.4 4680.12C10223.8 4667.65 10277.8 4644.48 10333.7 4619.44C10350.5 4670.44 10367.9 4714.2 10384.5 4763.6C10517.4 4659.53 10610.5 4503.08 10676.4 4414.52C10703.4 4548.86 10644.3 4673.19 10587.5 4786.34C10663.7 4748.55 10727.2 4702.82 10790.5 4664.94C10783.4 4713.88 10785.3 4760.11 10777.8 4809.09C10956.2 4719.2 11013.4 4582.66 11031.6 4452.45C11047.6 4585.78 11026.7 4715.16 10968.2 4831.84C11112.7 4699.29 11260.4 4577.11 11475.7 4505.56C11269.4 4565.32 11267.4 4689.11 11247.3 4809.09C11319.9 4770.66 11408.8 4763.04 11488.4 4748.37C11582.9 4766.07 11600.6 4799.87 11640.7 4831.84C11675.9 4753.92 11647.1 4690.35 11615.3 4626.96C11720.8 4664.71 11763.9 4739.1 11805.6 4801.48C11865.7 4725.85 11856.4 4647.37 11856.4 4566.24C11946.9 4643.11 11952.7 4722.96 11995.9 4809.05C12066.1 4733.19 12189.8 4669.11 12275.1 4611.74C12249.7 4686.72 12234.3 4752.82 12224.3 4824.23C12359.4 4769.28 12446 4718.92 12592.3 4680.08C12539 4647.74 12482.7 4675.08 12427.3 4672.46C12561.4 4514.46 12602.4 4346.04 12541.5 4164.05C12575.1 4294.72 12502.5 4389.2 12427.3 4490.33C12409.5 4300.13 12349.8 4082 12503.5 3928.81C12293.6 4047.97 12346.3 4219.27 12275.1 4361.36C12213.5 4280.18 12187 4202.85 12122.8 4126.12C12121.8 4206.43 12047.6 4265.64 11983.2 4323.38C12043.6 4238.58 11922.2 4020.49 11894.4 4186.8C11862.6 4235.97 11776.1 4274.91 11754.9 4293.02L11767.6 4164.14Z" fill="#4C098C"/>
<path d="M8979.14 4600.5C8976.8 4600.5 8974.69 4600.96 8972.44 4601.15C8891.58 4641.51 8853.97 4734.71 8821.49 4824.65C8821.49 4780.43 8821.49 4736.22 8821.49 4691.96C8795.94 4748.14 8773.97 4808.46 8707.78 4837.26V4664.44H8695.08C8637.6 4711.82 8583.98 4785.25 8562.38 4868.86C8546.05 4809.01 8536.19 4733.74 8492.84 4685.67C8482.66 4736.58 8465.28 4773.51 8454.96 4824.6C8429.68 4774.06 8417.07 4707.05 8360.19 4691.91C8355.74 4736.54 8349.97 4784.15 8353.91 4830.93C8318.82 4780.8 8284.88 4732.78 8246.85 4686.73C8265.98 4744.93 8277.63 4808.14 8280.2 4876.57C8221.9 4801.62 8235.29 4737 8135.53 4742.64C8127.96 4759.7 8101.45 4776.9 8103.38 4812.31C8091.41 4814.69 8039.53 4813.13 8017.65 4844.37C7993.06 4811.62 8009.07 4791.03 7942.65 4801.53C7944.44 4790.89 7937.7 4778.87 7948.02 4769.38C7965.96 4765.8 7987.19 4777.31 8001.6 4758.74C8005.22 4722.5 8016.78 4677.05 7985.45 4640.87C7929.95 4646.41 7896.37 4658.07 7851.51 4689.07C7823.95 4661.51 7836.65 4638.94 7771.15 4651.55C7745.15 4677.56 7719.23 4709.07 7706.85 4748.01C7674.05 4682.42 7646.12 4642.84 7567.54 4689.07C7568.37 4699.21 7549.06 4737.5 7572.91 4753.37C7537.82 4768.97 7510.85 4773.32 7487.18 4812.31C7470.26 4789.74 7472.18 4761.44 7438.98 4748.01C7452.32 4699.02 7466.82 4664.67 7417.28 4651C7406.59 4651.96 7396 4653.29 7385.4 4654.49C7372.28 4675.68 7351.64 4702.6 7347.88 4731.91C7302.88 4756.9 7284.22 4764.88 7288.94 4822.99C7267.75 4798.78 7259.63 4772.27 7213.85 4774.79C7203.72 4737.55 7217.07 4719.43 7171.01 4715.85C7138.03 4748.83 7107.03 4792.22 7079.92 4844.41C7061.62 4823.5 7040.11 4791.4 7010.29 4774.79C6980.43 4828.55 6968.83 4895.5 6908.42 4924.86C6900.53 4885.51 6901.26 4843.91 6881.63 4806.99C6860.26 4828.36 6831.63 4850.84 6817.32 4881.98C6821.41 4841.07 6825.9 4810.75 6837.64 4773.42C6830.35 4773.87 6823.06 4774.29 6815.76 4774.65C6758.15 4816.99 6698.11 4862.53 6645.82 4914.13C6643.62 4906.79 6641.83 4899.73 6640 4892.71C6643.44 4957.84 6643.44 5025.58 6648.67 5077.96C6689.35 5025.12 6727.33 4955.77 6759.76 4907.11C6775.54 4997.97 6816.41 5105.89 6862.23 5197.53C6906.44 5159.69 6919.52 5114.61 6939.1 5060.85C6962.45 5118.64 6979.05 5169.92 6998.96 5214.68C7046.25 5090.53 7094.51 4963.71 7152.71 4847.3C7084.83 5067.46 7057.26 5297.88 7135.69 5513.58C7225.83 5434.19 7292.61 5321.36 7366.27 5223.16C7360.59 5291.23 7351.73 5370.3 7340.63 5436.71C7371.5 5395.89 7394.71 5350.4 7417.51 5308.61C7436.64 5354.2 7434.71 5399.79 7443.2 5445.24C7508.47 5439.97 7547.77 5363.56 7588.41 5317.14C7593.05 5363.24 7612.91 5405.71 7622.54 5453.82C7629.88 5495.1 7650.06 5539.17 7665.29 5573.39C7696.98 5506.7 7731.16 5439.69 7770.74 5377.41C7794.09 5310.77 7836.24 5250.37 7913.02 5206.06C7857.57 5254.59 7811.33 5313.57 7770.74 5377.41C7739.18 5467.53 7742.16 5569.17 7742.16 5658.79C7815 5637.42 7852.66 5565.5 7896.01 5522.16C7903.48 5565.96 7910.87 5576.69 7921.65 5616.13C8019.62 5526.79 8090.58 5422.82 8135.21 5299.99C8150.12 5386.45 8143.74 5476.61 8143.74 5564.77C8248.78 5444.14 8294.97 5251.05 8306.07 5129.14C8316.11 5210.78 8335.2 5293.66 8348.82 5368.33C8387.71 5257.98 8452.02 5167.85 8511.15 5069.29C8447.62 5206.01 8434.18 5348.51 8434.18 5505C8498.17 5492.99 8520.18 5453.45 8562.38 5428.13C8535.96 5365.21 8528.16 5303.84 8528.16 5223.07C8580.54 5221.97 8604.99 5257.15 8639.26 5282.84C8583.07 5204.45 8611.6 5133.13 8630.72 5069.29C8691.68 5080.02 8706.45 5131.71 8733.19 5171.84C8748.79 5109.28 8775.53 5068.1 8801.54 5009.53C8865.48 5035.95 8844.29 5100.8 8844.29 5180.37C8870.11 5145.1 8906.21 5146.62 8938.27 5129.14C8834.33 5051.45 8841.86 4965.22 8852.82 4855.74C8933.78 4857.03 8917.22 4878.95 8963.91 4941.19C8983.59 4884.64 8999.87 4831.07 9013.36 4780.02C8999.64 4815.38 8985.56 4851.06 8973.13 4887.8C8973.13 4792.03 8969.78 4695.21 8979.14 4600.5Z" fill="#4F0B90"/>
<path d="M14631.4 4823.63C14655.8 4804.64 14723 4819 14707.4 4764.56C14752.1 4770.06 14904.6 4791.02 14990.4 4759.65C14931.2 4687.46 14863.6 4622.65 14747.6 4626.64C14858.2 4633.43 14960.6 4655.54 14969.6 4565C14905.9 4539.32 14840.6 4504.55 14752.8 4503.77C14753 4476.48 14760.9 4452.86 14753.5 4424.33C14665.2 4432.91 14602.8 4431.12 14561.2 4507.07C14548.6 4389.48 14572.2 4293.94 14599.7 4181.44C14542 4281.28 14483.9 4385.53 14450.1 4494.55C14430.8 4312.52 14419.4 4163.27 14306 3998.75C14436.5 4128.28 14431.7 4371.77 14313.3 4496.94C14293.8 4488.13 14267.4 4469.05 14236.4 4462.13C14245 4403.74 14235.2 4343.98 14263.7 4288.35C14215.4 4317.56 14141.2 4344.35 14130.7 4413.42C14120.1 4313.8 14114.5 4235.42 14185.2 4152.49C14096.4 4186.48 14055.5 4240.23 14021.9 4335.86C14013.7 4258.67 13989 4114.75 14025.4 4025.26C13936.9 4153.64 13890.2 4249.5 13946.7 4402.14C13922.2 4423.74 13871.9 4417.04 13871.4 4468.41C13839.8 4413.05 13840.1 4364.16 13741.3 4362.32C13721.3 4386.45 13665.2 4398.47 13698.1 4471.39C13759.6 4515.28 13780.4 4498.13 13764.3 4578.58C13678.6 4586.28 13621.1 4590.64 13579.6 4646.78C13546.3 4584.17 13523.5 4528.36 13435.7 4497.58C13446 4471.53 13494.2 4400.72 13447 4345.77C13367.3 4366.55 13319.3 4371.91 13255.4 4435.71C13192.2 4446.03 13133.5 4449.01 13076.7 4474.88L13069.8 4410.03C13014.8 4423.1 12938.1 4447.54 12867.6 4485.75C12854.7 4427.55 12869 4415.11 12793.7 4393.15C12771.7 4441.85 12752.1 4480.43 12726.2 4531.52C12758 4549.87 12599.2 4313.07 12432.4 4262.2C12516.6 4357.33 12533.2 4436.95 12545.2 4549.09C12503.2 4531.52 12468.1 4515.79 12421.1 4500.7C12342.7 4486.21 12311.8 4521.38 12269.8 4539.41C12302.8 4603.57 12411 4609.08 12442.5 4615.87C12349.5 4641.23 12358.7 4676.59 12345.3 4733.1C12417.5 4755.43 12498.7 4744.88 12575 4743.55C12387.4 4717.73 12327 4819.09 12341.7 4957.01C12455 4960.04 12550.1 4900 12613.9 4851.2C12618.6 4896.15 12624 4945.96 12624.6 4952.1C12725.9 4950.36 12793.3 4885.32 12847.3 4811.02C12855.3 4866.56 12906.5 4877.11 12939.4 4903.3C12955.2 4865.6 13023.6 4823.59 13056.5 4800.2C13075.5 4724.38 13047.9 4729.98 12972 4693.33C13187 4708.19 13319.2 4827.44 13413.3 4974.58C13407.7 4923.94 13424.5 4877.62 13434.5 4829.78C13449.9 4885.09 13516.4 4923.16 13548.7 4957.79C13521.5 4870.05 13572.5 4820.7 13627.7 4754.24C13624.1 4808.22 13661.4 4849.91 13688.6 4897.61C13708.6 4768.73 13833.3 4699.48 13935.6 4640.59C13854 4714.57 13869.3 4790.93 13879.5 4887.06C13928.9 4789.42 14016.7 4734.06 14113.6 4680.81C14123.5 4736.81 14177 4799.51 14202.7 4830.93C14292.3 4805.66 14333.6 4751.76 14372.2 4705.21C14394 4813.31 14520.7 4799.92 14631.4 4823.63Z" fill="#6704C7"/>
<path d="M16109.5 4233.49C16123.9 4190.1 16152.5 4158.78 16151.7 4107.04C16095 4171.76 16032.7 4163.36 16053.3 4303.76C16053.3 4178.68 16058 4071.18 15997 3966.51C15997 4080.26 16019 4255.96 15898.6 4275.64C15882.6 4262.84 15749.1 4351.36 15828.4 4219.46C15861.5 4194.6 15880.7 4142.72 15940.8 4135.16C15875.6 4150.2 15805.7 4103.69 15758.1 4177.31C15734.6 4140.39 15714.2 4059.71 15659.7 4022.74C15633.9 4079.52 15683.5 4151.81 15589.4 4177.31C15556.7 4103.69 15556.6 4027.65 15477 3966.56C15477 4055.54 15477 4144.56 15477 4233.54C15435.5 4233.54 15428.4 4267.43 15378.6 4233.54C15377.1 4233.08 15308.7 4152.17 15224.1 4191.39C15192.7 4231.7 15096.6 4221.43 15125.7 4317.84C15103.7 4308.07 15041.4 4262.75 14999.2 4261.61C15003.9 4238.17 15006.5 4214.28 15013.2 4191.34C14998.1 4181.25 14981.3 4095.21 14928.9 4135.11C14909.8 4192.44 14820.6 4205.84 14872.8 4303.76C14816.2 4247.16 14776.1 4169.79 14690.1 4135.11C14644.7 4245.83 14714.6 4254.36 14746.2 4317.79C14632.7 4276.65 14660.3 4377.92 14605.7 4416.17C14671.6 4480.79 14722.2 4416.17 14788.4 4416.17C14821.2 4416.17 14854 4416.17 14886.8 4416.17C14761.6 4440.62 14824.7 4495.93 14788.4 4542.62C14877.5 4559.5 14930.2 4517.07 14999.2 4486.39C14995.8 4530.33 15027.8 4553.08 15041.4 4584.77C15059 4477.08 15110.1 4445.8 15181.9 4373.98C15259.7 4347.42 15262.3 4434.29 15294.3 4458.28C15294.3 4388.01 15294.3 4317.75 15294.3 4247.48C15332 4309.4 15364 4357.01 15392.7 4402.05C15280.3 4266.19 15402.1 4364.57 15406.7 4345.86C15479.3 4332.24 15493.6 4363.24 15547.3 4373.98C15658.8 4283.12 15593.2 4419.89 15603.5 4430.21C15693.8 4472.86 15808.5 4454.65 15912.6 4444.24C15980.4 4406.81 16016.9 4400.81 16081.3 4373.98C16287.4 4367.92 16223.6 4319.03 16109.5 4233.49Z" fill="#6704C7"/>
<path d="M12312.7 5314.3C12262.5 5252.42 12221 5140.05 12184.2 5094.1C12212.1 5156.15 12214.1 5221.74 12220.9 5289.8C12162.7 5263.61 12104.1 5246.74 12049.7 5222.52C12112.4 5258.75 12132.3 5329.75 12153.6 5393.78C12033.8 5361.58 11921.1 5373 11811.1 5406.03C11881.4 5400.48 11950.1 5429.97 12013 5448.82C11912.5 5462.76 11813.1 5540.36 11749.9 5589.48C11861.7 5599.9 11966.6 5572.33 12074.1 5552.79C12066.9 5530.23 12078.6 5504.17 12080.2 5485.51C12108.6 5504.72 12129.8 5526.83 12153.6 5546.69C12217.3 5511.42 12213.4 5455.97 12227 5387.68C12267.9 5389.47 12302.9 5395.89 12343.3 5399.92C12353.3 5351.49 12330.4 5349.8 12312.7 5314.3Z" fill="#4C0590"/>
<path d="M19334.1 4351.67C19234.2 4311.73 19149.7 4275.68 19040.3 4301.32C19017.6 4225.69 19014.4 4069.2 19023.6 3948.85C18962.7 4070.43 18907.4 4189.5 18906 4326.45C18848.6 4249.9 18823.4 4237.06 18729.8 4217.34C18712.1 4237.34 18676 4262.33 18662.7 4292.88C18636.9 4228.44 18616.9 4164.55 18545.1 4141.85C18524.7 4178.63 18498.5 4218.39 18486.4 4267.74C18467.2 4171.66 18462.3 4031.26 18478 3932.06C18431 4037.78 18369 4158.86 18335.3 4301.32C18370.6 4160.05 18338.9 3953.66 18461.2 3822.99C18389.7 3885.6 18332 3970.91 18285 4057.96C18295.3 3943.71 18314.2 3832.49 18394.1 3739.06C18245.1 3871.47 18131.4 4086.9 18092 4284.53C18099.8 4198.72 18094.9 4078.18 18066.8 3982.42C18049 4071.26 18027.8 4164.27 17966.1 4234.17C17992.3 4129.42 17982.3 4023.05 17957.7 3906.88C17950.8 3932.24 17919.7 4040.21 17899 4091.48C17899 3966.82 17896.8 3842.39 17907.3 3722.27C17793.9 3860.92 17722.1 4054.56 17747.9 4242.56C17696.9 4079.47 17636.4 3912.06 17538.1 3781.03C17638.7 3967.65 17649.8 4163.17 17689.2 4360.07C17624.9 4308.56 17582.7 4273.61 17512.9 4242.61C17490.8 4283.34 17496.1 4324.16 17496.1 4368.51C17486.7 4395.34 17512.9 4396.49 17521.3 4410.48C17416.3 4294.8 17298 4311.55 17210.8 4376.9C17246.2 4456.94 17333.5 4492.02 17395.4 4519.54C17277.3 4503.86 17277.9 4569.58 17277.9 4670.57C17397.9 4651.59 17496.2 4652.09 17605.3 4586.64C17631.3 4663.42 17701.8 4715.15 17756.3 4762.85C17935.2 4783.77 18051.6 4586.32 18234.7 4553.07C18241.5 4615.4 18285.2 4649.8 18318.6 4695.71C18482.4 4564.86 18672.4 4485.92 18897.7 4485.92C19039.4 4399.51 19189.4 4351.67 19334.1 4351.67Z" fill="#350266"/>
<path d="M20472.6 4765.79C20535.6 4759.51 20584.5 4775.83 20640.7 4732.17C20629.9 4685.39 20606.9 4642.69 20607.1 4586.51C20534.7 4557.52 20463.4 4523.44 20360.6 4530.46C20388.5 4488.58 20409 4433.41 20450.2 4395.98C20380.5 4395.98 20294.1 4372.59 20214.9 4440.79C20225 4340.12 20239.6 4247.56 20270.9 4149.46C20217.5 4238.34 20134 4343.97 20125.2 4463.22C20142.3 4292.69 20133.7 4097.13 20058 3925.36C20067 4024.02 20075.9 4136.25 20046.8 4239.08C19994.3 4228.58 19920.9 4194.77 19845.1 4227.89C19854.7 4208.72 19876.8 4140.06 19901.1 4115.84C19843.2 4133.68 19778.4 4169.36 19710.6 4160.65C19721.3 4107.36 19734.3 4040.26 19744.2 3981.36C19707 4009.3 19637.8 4031.45 19621 4104.6C19632.4 3990.26 19640.6 3882.02 19665.8 3768.46C19559 3890.51 19471.2 4032.14 19441.7 4194.27C19461.2 3980.08 19396.6 3707.09 19296 3510.75C19309.4 3597.84 19331.2 3886.56 19318.4 4059.79C19273.8 4065.39 19288.7 4069.33 19228.8 4070.98C19219.9 3981.55 19202.1 3890.55 19240 3802.08C19231.9 3812.9 19130.5 3985.95 19139.1 4093.41C19102 4009.85 19079.6 3928.67 19004.7 3858.13C19039.9 4025.72 19044.3 4170.05 18993.5 4345.53C18953.1 4103.18 18890.9 3952.15 18690.9 3802.08C18897.5 3969.85 18870.2 4177.44 18870.2 4407.13C18842 4282.74 18785.3 4147.72 18735.7 4048.56C18778.2 4188.63 18757.6 4354.06 18735.7 4474.37C18538.6 4361.72 18478 4089.88 18478 3858.08C18450.6 4050.35 18483.9 4242.66 18545.2 4395.89C18468.5 4302.6 18393.2 4271.37 18287.5 4250.22C18370.8 4274.39 18437.8 4432.31 18466.8 4485.51C18368.6 4461.39 18279.7 4478.13 18186.6 4496.75C18216.3 4539.26 18272 4551.01 18309.9 4575.18C18069 4569.26 17961.4 4653.61 17828 4844.08C18018.1 4864.49 18211.6 4775.42 18399.6 4732.03C18382 4789.87 18388.4 4851.42 18388.4 4911.32C18511.8 4840.5 18618.8 4731.12 18702.1 4619.99C18695.9 4680.99 18722.3 4734.56 18735.7 4788.08C18805.7 4729.1 18863.3 4644.16 18915 4575.18C18856.8 4656.08 18876.3 4717.45 18892.6 4799.27C18983.5 4779 18952.1 4710.02 18982.2 4664.8C19051.9 4655.03 19096.3 4711.12 19139.1 4743.23C19140.2 4573.89 19174.8 4440.93 19262.3 4295.03C19199.7 4426.62 19193.5 4578.62 19217.5 4698.42C19243.5 4609.16 19297.3 4544.58 19352 4474.32C19309 4552.93 19334.4 4673.51 19340.8 4743.23C19410.3 4558.21 19551.2 4447.58 19721.8 4362.27C19624.9 4437.99 19611.5 4591.78 19598.6 4676.03H19766.6C19791.8 4598.89 19789 4520.41 19789 4440.75C19813.1 4525.37 19831 4602.7 19845.1 4687.27C19935.5 4614.3 20045.5 4572.98 20147.6 4530.41C20080.3 4570.41 20068.7 4659.2 20046.8 4732.13C20103.6 4687.87 20175.6 4676.12 20237.3 4653.7C20338.2 4709.51 20415.9 4755.43 20495 4799.36L20472.6 4765.79Z" fill="url(#paint8_linear_438_437)"/>
<path d="M18127 5703.4C18017.7 5663.45 17925.3 5627.41 17805.6 5653.04C17780.8 5577.41 17777.2 5420.92 17787.2 5300.57C17720.7 5422.16 17660.1 5541.22 17658.7 5678.18C17595.8 5601.63 17568.2 5588.79 17465.9 5569.07C17446.4 5589.06 17407 5614.06 17392.4 5644.6C17364.2 5580.16 17342.3 5516.28 17263.8 5493.57C17241.5 5530.36 17212.8 5570.12 17199.6 5619.47C17178.5 5523.38 17173.2 5382.99 17190.4 5283.78C17138.9 5389.5 17071.1 5510.59 17034.3 5653.04C17072.9 5511.78 17038.2 5305.39 17172 5174.72C17093.7 5237.32 17030.6 5322.63 16979.2 5409.68C16990.5 5295.43 17011.2 5184.21 17098.6 5090.79C16935.6 5223.2 16811.1 5438.62 16768 5636.26C16776.6 5550.44 16771.2 5429.91 16740.5 5334.15C16721.1 5422.99 16697.9 5516 16630.3 5585.9C16659 5481.14 16648.1 5374.78 16621.2 5258.6C16613.6 5283.97 16579.6 5391.93 16556.9 5443.21C16556.9 5318.55 16554.5 5194.12 16566.1 5074C16442 5212.65 16363.4 5406.29 16391.6 5594.29C16335.8 5431.2 16269.6 5263.79 16162.1 5132.75C16272.1 5319.38 16284.3 5514.9 16327.3 5711.8C16257.1 5660.29 16210.9 5625.34 16134.5 5594.34C16110.4 5635.06 16116.2 5675.88 16116.2 5720.23C16105.9 5747.06 16134.5 5748.21 16143.7 5762.2C16028.8 5646.53 15899.4 5663.27 15804 5728.63C15842.7 5808.66 15938.3 5843.75 16006 5871.27C15876.8 5855.58 15877.5 5921.31 15877.5 6022.3C16008.7 6003.31 16116.2 6003.82 16235.6 5938.37C16264 6015.15 16341.2 6066.88 16400.8 6114.58C16596.6 6135.5 16723.9 5938.05 16924.2 5904.8C16931.6 5967.13 16979.4 6001.52 17016 6047.44C17195.1 5916.58 17403.1 5837.65 17649.5 5837.65C17804.5 5751.24 17968.6 5703.4 18127 5703.4Z" fill="#350266"/>
<path d="M2602.96 5002.4C2493.72 4962.45 2401.28 4926.41 2281.6 4952.04C2256.76 4876.41 2253.2 4719.92 2263.23 4599.57C2196.69 4721.16 2136.12 4840.22 2134.67 4977.18C2071.84 4900.63 2044.24 4887.79 1941.87 4868.07C1922.45 4888.06 1883.01 4913.06 1868.4 4943.6C1840.2 4879.16 1818.32 4815.28 1739.84 4792.57C1717.51 4829.36 1688.75 4869.12 1675.56 4918.47C1654.53 4822.38 1649.16 4681.99 1666.37 4582.78C1614.94 4688.5 1547.09 4809.59 1510.26 4952.04C1548.9 4810.78 1514.17 4604.39 1648.01 4473.72C1569.72 4536.32 1506.64 4621.63 1455.21 4708.68C1466.55 4594.43 1487.22 4483.21 1574.59 4389.79C1411.6 4522.2 1287.15 4737.62 1244.04 4935.26C1252.57 4849.44 1247.2 4728.91 1216.49 4633.15C1197.07 4721.99 1173.89 4815 1106.34 4884.9C1135 4780.14 1124.11 4673.78 1097.16 4557.6C1089.58 4582.97 1055.61 4690.93 1032.88 4742.21C1032.88 4617.55 1030.47 4493.12 1042.06 4373C917.961 4511.65 839.427 4705.29 867.629 4893.29C811.777 4730.2 745.637 4562.79 638.098 4431.75C748.146 4618.38 760.29 4813.9 803.346 5010.8C733.092 4959.29 686.874 4924.34 610.547 4893.34C586.36 4934.06 592.181 4974.88 592.181 5019.23C581.894 5046.06 610.548 5047.21 619.731 5061.2C504.815 4945.53 375.396 4962.27 280 5027.63C318.69 5107.66 414.288 5142.75 481.983 5170.27C352.765 5154.58 353.467 5220.31 353.467 5321.3C484.692 5302.31 592.231 5302.82 711.563 5237.37C740.016 5314.15 817.196 5365.88 876.812 5413.58C1072.57 5434.5 1199.93 5237.05 1400.16 5203.8C1407.64 5266.13 1455.41 5300.52 1491.99 5346.44C1671.14 5215.58 1879.09 5136.65 2125.53 5136.65C2280.55 5050.24 2444.64 5002.4 2602.96 5002.4Z" fill="#350266"/>
<defs>
<linearGradient id="paint0_linear_438_437" x1="6871.78" y1="3517.5" x2="15916.2" y2="2968.34" gradientUnits="userSpaceOnUse">
<stop stop-color="#2D0454"/>
<stop offset="1" stop-color="#5906A6"/>
</linearGradient>
<linearGradient id="paint1_linear_438_437" x1="9407.96" y1="959.739" x2="13478" y2="2090.38" gradientUnits="userSpaceOnUse">
<stop stop-color="#43077B"/>
<stop offset="1" stop-color="#591895"/>
</linearGradient>
<linearGradient id="paint2_linear_438_437" x1="6520.61" y1="872.263" x2="9686.16" y2="1873.68" gradientUnits="userSpaceOnUse">
<stop stop-color="#43077B"/>
<stop offset="1" stop-color="#532280"/>
</linearGradient>
<linearGradient id="paint3_linear_438_437" x1="10221.2" y1="638.942" x2="15056" y2="1119.8" gradientUnits="userSpaceOnUse">
<stop stop-color="#5808A2"/>
<stop offset="1" stop-color="#671CAE"/>
</linearGradient>
<linearGradient id="paint4_linear_438_437" x1="12675.9" y1="1823.26" x2="6577.4" y2="1776.6" gradientUnits="userSpaceOnUse">
<stop stop-color="#2F0B51"/>
<stop offset="1" stop-color="#62259B"/>
</linearGradient>
<linearGradient id="paint5_linear_438_437" x1="18331.3" y1="1279.97" x2="4388.17" y2="3337.46" gradientUnits="userSpaceOnUse">
<stop stop-color="#2D0452"/>
<stop offset="1" stop-color="#3F0277"/>
</linearGradient>
<linearGradient id="paint6_linear_438_437" x1="18617.8" y1="3445.81" x2="5004.68" y2="6382.75" gradientUnits="userSpaceOnUse">
<stop stop-color="#B164F9"/>
<stop offset="1" stop-color="#750BD8"/>
</linearGradient>
<linearGradient id="paint7_linear_438_437" x1="6786.09" y1="3129.76" x2="6299.18" y2="4790.16" gradientUnits="userSpaceOnUse">
<stop stop-color="#4B0A88" stop-opacity="0.262745"/>
<stop offset="1" stop-color="#240145"/>
</linearGradient>
<linearGradient id="paint8_linear_438_437" x1="19312" y1="4141.37" x2="19215.1" y2="4948.85" gradientUnits="userSpaceOnUse">
<stop stop-color="#440581"/>
<stop offset="1" stop-color="#40136B"/>
</linearGradient>
</defs>
</svg>
