<svg width="6392" height="994" viewBox="0 0 6392 994" fill="none" xmlns="http://www.w3.org/2000/svg">
<rect width="6392" height="994" fill="#E5E5E5"/>
<path d="M-291.996 -1410.92L6385.7 -1877.87L6579.2 889.373L-98.4916 1356.32L-291.996 -1410.92Z" fill="#0A0A0A"/>
<path d="M-134.211 838.57L6543.48 371.62L6545.16 395.562L-132.537 862.512L-134.211 838.57Z" fill="#2E005A"/>
<path d="M-131.836 866.486L6545.86 399.536L6548.09 431.459L-129.604 898.408L-131.836 866.486Z" fill="#2E005A"/>
<path d="M-128.906 901.385L6548.79 434.435L6551.58 474.337L-126.116 941.287L-128.906 901.385Z" fill="#2E005A"/>
<path d="M-125.418 944.264L6552.28 477.314L6606.2 1248.43L-71.4962 1715.38L-125.418 944.264Z" fill="#2E005A"/>
<path d="M-136.023 818.633L6541.67 351.683L6542.79 367.644L-134.907 834.594L-136.023 818.633Z" fill="#2E005A"/>
<path d="M-137.281 801.678L6540.41 334.728L6540.97 342.708L-136.723 809.658L-137.281 801.678Z" fill="#2E005A"/>
<path d="M-140.418 755.787L6537.28 288.837L6537.55 292.828L-140.139 759.777L-140.418 755.787Z" fill="#2E005A"/>
<path d="M-139.441 770.752L6538.25 303.802L6538.6 308.79L-139.093 775.74L-139.441 770.752Z" fill="#2E005A"/>
<path d="M-138.395 785.717L6539.3 318.767L6539.72 324.752L-137.976 791.702L-138.395 785.717Z" fill="#2E005A"/>
<path d="M-141.324 741.818L6536.37 274.868L6536.58 277.861L-141.115 744.811L-141.324 741.818Z" fill="#2E005A"/>
<path d="M-142.164 728.848L6535.53 261.898L6535.67 263.893L-142.025 730.843L-142.164 728.848Z" fill="#2E005A"/>
<path d="M-142.93 715.875L6534.76 248.925L6534.83 249.923L-142.86 716.873L-142.93 715.875Z" fill="#2E005A"/>
</svg>
