<svg width="6392" height="994" viewBox="0 0 6392 994" fill="none" xmlns="http://www.w3.org/2000/svg">
<rect width="6392" height="994" fill="#E5E5E5"/>
<path d="M-291.996 -1410.92L6385.7 -1877.87L6579.2 889.373L-98.4916 1356.32L-291.996 -1410.92Z" fill="white"/>
<path d="M-134.215 815.57L6543.48 348.62L6545.15 372.562L-132.541 839.512L-134.215 815.57Z" fill="#590CA3"/>
<path d="M-131.836 849.486L6545.86 382.536L6548.09 414.459L-129.604 881.408L-131.836 849.486Z" fill="#590CA3"/>
<path d="M-128.906 891.385L6548.79 424.435L6551.58 464.337L-126.116 931.287L-128.906 891.385Z" fill="#590CA3"/>
<path d="M-125.418 941.264L6552.28 474.314L6606.2 1245.43L-71.4962 1712.38L-125.418 941.264Z" fill="#590CA3"/>
<path d="M-136.023 789.633L6541.67 322.683L6542.79 338.644L-134.907 805.594L-136.023 789.633Z" fill="#590CA3"/>
<path d="M-137.281 771.678L6540.41 304.728L6540.97 312.708L-136.723 779.658L-137.281 771.678Z" fill="#590CA3"/>
<path d="M-140.418 726.787L6537.28 259.837L6537.55 263.828L-140.139 730.777L-140.418 726.787Z" fill="#590CA3"/>
<path d="M-139.441 740.752L6538.25 273.802L6538.6 278.79L-139.093 745.74L-139.441 740.752Z" fill="#590CA3"/>
<path d="M-138.395 755.717L6539.3 288.767L6539.72 294.752L-137.976 761.702L-138.395 755.717Z" fill="#590CA3"/>
<path d="M-141.324 713.818L6536.37 246.868L6536.58 249.861L-141.115 716.811L-141.324 713.818Z" fill="#590CA3"/>
<path d="M-142.164 701.848L6535.53 234.898L6535.67 236.893L-142.025 703.843L-142.164 701.848Z" fill="#590CA3"/>
<path d="M-142.93 690.875L6534.76 223.925L6534.83 224.923L-142.86 691.873L-142.93 690.875Z" fill="#590CA3"/>
</svg>
